<?xml version="1.0" encoding="iso-8859-1"?>
<!-- Generator: Adobe Illustrator 19.0.0, SVG Export Plug-In . SVG Version: 6.00 Build 0)  -->
<svg xmlns="http://www.w3.org/2000/svg" xmlns:xlink="http://www.w3.org/1999/xlink" version="1.1" id="Capa_1" x="0px" y="0px" viewBox="0 0 512.002 512.002" style="enable-background:new 0 0 512.002 512.002;" xml:space="preserve">
<path style="fill:#B8BFCC;" d="M482.947,241.657c-12.255-19.116-28.146-34.376-47.232-45.371l-126.583,7.109l-97.177,145.083  l58.666,38.965c2.287-7.285,17.65-20.23,34.273-28.849c14.557-7.55,32.998-6.641,45.972,2.229  c21.961,15.038,25.713,43.517,11.655,63.372c-7.017,9.923,0.102,23.69,12.255,23.69c0.264,0,0.527,0,0.807-0.015  c47.657-2.551,88.38-28.146,111.733-70.218C510.654,335.579,508.939,282.204,482.947,241.657z"/>
<path style="fill:#C4CAD9;" d="M269.362,28.071C228.829,2.11,175.44,0.351,133.368,23.703C91.296,47.07,65.701,87.793,63.15,135.436  c-0.668,12.475,13.448,20.325,23.675,13.062c9.807-6.948,22.238-9.763,34.039-7.579c26.574,4.757,42.835,27.828,30.785,62.683  c-7.036,20.274-20.581,35.607-27.193,37.66l68.987,88.718l114.182-158.115l7.109-96.56  C303.738,56.217,288.478,40.326,269.362,28.071z"/>
<path style="fill:#E6EEFF;" d="M174.392,486.157c-26.119,25.82-66.348,28.822-95.471,8.707  c-19.214,12.91-48.035,18.614-64.547,16.812c-3.903,0-7.506-1.801-9.908-4.203v-0.3c-2.703-2.403-4.203-5.704-4.203-9.607  c-0.3-1.801-1.801-36.926,16.812-64.547c-20.114-29.123-17.414-69.652,8.705-95.471c5.704-6.004,15.311-6.004,21.317,0  l21.016,21.315c2.701,2.403,6.604,5.704,9.607,5.704c5.404,0,20.114-13.81,28.521-22.517l31.523-10.507l21.317,21.015l21.315,21.317  L169.588,405.7c-8.405,8.407-22.215,23.117-22.215,28.521c0,3.001,3.001,6.904,5.704,9.607l21.315,21.016  C180.096,470.846,180.096,480.154,174.392,486.157z"/>
<path style="fill:#CFD6E6;" d="M174.392,486.157c-26.119,25.82-66.348,28.822-95.471,8.707  c-19.214,12.91-48.035,18.614-64.547,16.812c-3.903,0-7.506-1.801-9.908-4.203v-0.3l154.614-154.614l21.315,21.317L169.587,405.7  c-8.405,8.407-22.215,23.117-22.215,28.521c0,3.001,3.001,6.904,5.704,9.607l21.315,21.016  C180.096,470.846,180.096,480.154,174.392,486.157z"/>
<path style="fill:#E6EEFF;" d="M453.3,207.252c-17.714,17.712-39.931,31.222-62.447,41.431  c-52.239,24.018-109.88,59.143-154.314,93.669c-5.404,4.203-9.607,7.506-15.011,11.709c-6.003,4.502-14.711,3.901-19.814-1.202  l-21.317-21.315l-21.315-21.317c-5.404-5.404-5.704-13.811-1.202-19.816c4.203-5.404,7.506-9.605,11.709-15.011  c35.125-45.033,69.953-102.976,93.369-154.313c10.509-22.517,24.018-44.733,41.731-62.447C353.925,9.403,440.39-4.707,497.13,1.298  c3.605,0.298,6.906,1.801,9.309,4.202c2.1,2.403,3.901,5.704,4.202,9.307C516.645,74.253,501.634,158.916,453.3,207.252z"/>
<path style="fill:#CFD6E6;" d="M453.3,207.252c-17.714,17.712-39.931,31.222-62.447,41.431  c-52.239,24.018-109.88,59.143-154.314,93.669c-5.404,4.203-9.607,7.506-15.011,11.709c-6.003,4.502-14.711,3.901-19.814-1.202  l-21.317-21.315L506.439,5.502c2.1,2.403,3.901,5.704,4.202,9.307C516.645,74.253,501.634,158.916,453.3,207.252z"/>
<path style="fill:#C4CAD9;" d="M265.36,373.875l-63.947-63.647l-63.647-63.647c-16.812-17.113-46.534-16.812-63.647,0  c-17.414,17.712-17.414,46.233,0,63.647l63.647,63.647l63.947,63.647c17.414,17.714,45.933,17.714,63.647,0.3  C282.773,420.108,282.773,391.588,265.36,373.875z"/>
<path style="fill:#B8BFCC;" d="M265.36,437.823c-17.714,17.414-46.233,17.414-63.647-0.3l-63.947-63.647l63.647-63.647  l63.947,63.647C282.773,391.588,282.773,420.108,265.36,437.823z"/>
<g>
</g>
<g>
</g>
<g>
</g>
<g>
</g>
<g>
</g>
<g>
</g>
<g>
</g>
<g>
</g>
<g>
</g>
<g>
</g>
<g>
</g>
<g>
</g>
<g>
</g>
<g>
</g>
<g>
</g>
</svg>
