<?xml version="1.0" encoding="iso-8859-1"?>
<!-- Generator: Adobe Illustrator 19.0.0, SVG Export Plug-In . SVG Version: 6.00 Build 0)  -->
<svg xmlns="http://www.w3.org/2000/svg" xmlns:xlink="http://www.w3.org/1999/xlink" version="1.1" id="Capa_1" x="0px" y="0px" viewBox="0 0 512 512" style="enable-background:new 0 0 512 512;" xml:space="preserve">
<path style="fill:#EC7838;" d="M500.693,133.995C473.713,50.06,404.068,0,315.937,0H196.03C107.899,0,37.953,50.06,11.274,133.695  c-31.175,97.424,3.398,213.434,98.423,281.781c35.372,51.859,114.211,84.835,129.8,91.128c9.293,3.597,12.89,5.396,16.487,5.396  c3.897,0,7.494-1.799,16.487-5.396c15.589-6.294,94.427-39.269,129.8-91.128C498.494,345.929,531.568,230.221,500.693,133.995z"/>
<path style="fill:#DB632C;" d="M402.269,415.476c-35.372,51.859-114.211,84.835-129.8,91.128  c-8.993,3.597-12.589,5.396-16.487,5.396V0h59.953c88.131,0,157.776,50.06,184.756,133.995  C531.568,230.221,498.494,345.929,402.269,415.476z"/>
<path style="fill:#FF9F19;" d="M359.403,349.826l-13.489,27.878c-12.589,25.481-38.97,41.968-67.447,41.968h-44.965  c-28.478,0-54.858-16.487-67.447-41.968l-13.489-27.878c-3.597-7.194-0.599-16.186,6.896-20.083h193.048  C360.001,333.64,363,342.633,359.403,349.826z"/>
<path style="fill:#F28618;" d="M359.403,349.826l-13.489,27.878c-12.589,25.481-38.97,41.968-67.447,41.968h-22.482v-89.93h96.524  C360.001,333.64,363,342.633,359.403,349.826z"/>
<path style="fill:#FFDE33;" d="M443.56,152.166c-5.05-15.735-13.221-29.992-22.34-42.345  c-13.861-18.779-35.436-30.459-59.222-32.011c-24.869-1.771-49.283,7.714-66.613,25.717c-19.043,19.746-57.465,22.146-78.879-0.088  c-17.33-17.974-41.496-27.577-66.525-25.732c-23.77,1.537-45.375,13.159-59.28,31.923c-9.134,12.383-17.32,26.625-22.37,42.36  c-21.549,67.204,13.37,147.094,85.146,200.41l102.505-17.681l102.505,17.683C430.205,299.146,465.08,219.327,443.56,152.166z"/>
<path style="fill:#FFBC33;" d="M443.436,152.28c-4.795-15.887-12.989-29.977-22.282-42.566  c-13.79-18.586-35.372-30.276-59.055-31.775c-24.88-1.799-49.46,7.494-66.847,25.481c-9.593,10.191-24.281,15.887-39.269,15.887  v215.532l102.519,17.686C430.148,299.166,465.02,219.429,443.436,152.28z"/>
<path style="fill:#5C5F66;" d="M159.35,193.267l-29.977-14.988c-7.406-3.703-10.407-12.705-6.704-20.111  c3.703-7.421,12.734-10.363,20.111-6.704l29.977,14.988c7.406,3.703,10.407,12.705,6.704,20.111  C175.778,193.909,166.83,196.982,159.35,193.267z"/>
<path style="fill:#53565C;" d="M332.506,186.564c-3.703-7.406-0.702-16.408,6.704-20.111l29.977-14.988  c7.406-3.659,16.408-0.717,20.111,6.704c3.703,7.406,0.702,16.408-6.704,20.111l-29.977,14.988  C345.136,196.982,336.188,193.909,332.506,186.564z"/>
<path style="fill:#B37447;" d="M360.901,344.731c0,8.392-6.594,14.988-14.988,14.988h-17.687c-26.08,0-51.859-8.993-72.243-24.882  c-20.384,15.889-46.164,24.882-72.244,24.882h-17.687c-8.394,0-14.988-6.596-14.988-14.988c0-8.394,6.594-14.988,14.988-14.988  h17.687c20.983,0,41.366-8.095,57.254-21.884v-16.787l-30.877-31.175c-21.582-21.284-16.487-58.755,11.391-71.945  c11.691-5.396,23.083-8.093,34.474-8.093c11.391,0,22.782,2.697,34.474,8.093c27.878,13.19,32.973,50.661,11.391,71.945  l-30.877,31.175v16.787c15.89,13.789,36.273,21.884,57.255,21.884h17.687C354.308,329.743,360.901,336.337,360.901,344.731z"/>
<path style="fill:#995C3D;" d="M360.901,344.731c0,8.392-6.594,14.988-14.988,14.988h-17.687c-26.08,0-51.859-8.993-72.243-24.882  V179.86c11.391,0,22.782,2.697,34.474,8.093c27.878,13.19,32.973,50.661,11.391,71.945l-30.877,31.175v16.787  c15.889,13.789,36.272,21.884,57.254,21.884h17.687C354.308,329.743,360.901,336.337,360.901,344.731z"/>
<g>
</g>
<g>
</g>
<g>
</g>
<g>
</g>
<g>
</g>
<g>
</g>
<g>
</g>
<g>
</g>
<g>
</g>
<g>
</g>
<g>
</g>
<g>
</g>
<g>
</g>
<g>
</g>
<g>
</g>
</svg>
