<?xml version="1.0" encoding="iso-8859-1"?>
<!-- Generator: Adobe Illustrator 19.0.0, SVG Export Plug-In . SVG Version: 6.00 Build 0)  -->
<svg xmlns="http://www.w3.org/2000/svg" xmlns:xlink="http://www.w3.org/1999/xlink" version="1.1" id="Capa_1" x="0px" y="0px" viewBox="0 0 512.001 512.001" style="enable-background:new 0 0 512.001 512.001;" xml:space="preserve">
<path style="fill:#F9BC35;" d="M76.938,435.099c-17.714-17.415-46.237-17.415-63.653,0c-17.714,17.714-17.714,46.237,0,63.653  c8.706,8.706,20.116,13.211,31.826,13.211c11.409,0,23.12-4.505,31.826-13.211C94.354,481.337,94.354,452.813,76.938,435.099z"/>
<path style="fill:#F39E31;" d="M76.938,498.752c-8.706,8.706-20.417,13.211-31.826,13.211c-11.71,0-23.12-4.505-31.826-13.211  l63.653-63.653C94.354,452.813,94.354,481.337,76.938,498.752z"/>
<rect x="67.964" y="259.777" transform="matrix(-0.7071 0.7071 -0.7071 -0.7071 569.2922 373.7585)" style="fill:#6D7179;" width="278.549" height="90.014"/>
<rect x="83.874" y="298.2" transform="matrix(-0.7071 0.7071 -0.7071 -0.7071 607.7096 389.6876)" style="fill:#64686F;" width="278.549" height="45.009"/>
<path style="fill:#FFDE33;" d="M507.497,46.876c6.005,6.005,6.005,15.313,0,21.319c-5.705,6.005-15.313,6.005-21.319,0  L475.67,57.687L358.873,174.182c-5.705,6.005-15.313,6.005-21.017,0c-6.004-5.705-6.004-15.311,0-21.016L454.352,36.368  l-10.508-10.51c-6.005-6.004-6.005-15.612,0-21.317c6.005-6.005,15.313-6.005,21.317,0l10.51,10.508l10.508-10.508  c6.005-6.005,15.614-6.005,21.319,0c6.005,5.705,6.005,15.313,0,21.317l-10.508,10.51L507.497,46.876z"/>
<path style="fill:#FFBC33;" d="M507.497,46.876c6.005,6.005,6.005,15.313,0,21.319c-5.705,6.005-15.313,6.005-21.319,0  L475.67,57.687L358.873,174.182c-5.705,6.005-15.313,6.005-21.017,0L507.497,4.541c6.005,5.705,6.005,15.313,0,21.317l-10.508,10.51  L507.497,46.876z"/>
<path style="fill:#E55639;" d="M475.67,227.326c-11.71,11.71-27.023,17.716-42.336,17.716c-15.311,0-30.925-6.005-42.634-17.716  L284.712,121.339c-23.42-23.42-23.42-61.552,0-84.972c23.418-23.42,61.25-23.42,84.97,0l53.145,53.145l52.844,52.842  C499.089,165.775,499.089,203.907,475.67,227.326z"/>
<path style="fill:#CF4529;" d="M475.67,227.326c-11.71,11.71-27.023,17.716-42.336,17.716c-15.311,0-30.925-6.005-42.634-17.716  l-52.844-52.844l84.972-84.97l52.844,52.842C499.089,165.775,499.089,203.907,475.67,227.326z"/>
<path style="fill:#F29A36;" d="M443.844,68.194c-28.223-28.223-77.766-28.223-105.989,0c-14.411,14.111-22.218,33.026-22.218,53.145  c0,20.116,7.806,38.731,22.218,52.842c14.113,14.413,32.728,22.22,52.844,22.22s39.032-7.806,53.145-22.22  c14.111-14.111,21.917-32.726,21.917-52.842C465.761,101.22,457.954,82.304,443.844,68.194z"/>
<path style="fill:#E7812E;" d="M465.761,121.339c0,20.116-7.806,38.731-21.917,52.842c-14.113,14.413-33.028,22.22-53.145,22.22  s-38.731-7.806-52.844-22.22L443.844,68.194C457.954,82.304,465.761,101.22,465.761,121.339z"/>
<path style="fill:#FFDE33;" d="M401.508,195.499l-42.334-42.334l-42.634-42.636c-17.114-16.814-46.839-16.814-63.653,0  c-17.716,17.716-17.716,46.239,0,63.653l42.334,42.636l42.334,42.334h0.3c17.415,17.716,45.939,17.716,63.653,0  C418.922,241.737,418.922,213.215,401.508,195.499z"/>
<path style="fill:#FFBC33;" d="M401.508,259.152c-17.714,17.716-46.237,17.716-63.653,0h-0.3l-42.334-42.334l63.953-63.653  l42.334,42.334C418.922,213.215,418.922,241.737,401.508,259.152z"/>
<path style="fill:#FFDE33;" d="M140.591,413.781l-42.334-42.334c-17.716-17.716-46.239-17.716-63.953,0  c-17.415,17.413-17.415,46.237,0.3,63.653l42.334,42.334v0.3c8.708,8.706,20.417,12.911,31.826,12.911s23.12-4.203,31.826-13.211  C158.307,460.018,158.307,431.496,140.591,413.781z"/>
<path style="fill:#FFBC33;" d="M140.591,477.433c-8.706,9.007-20.417,13.211-31.826,13.211s-23.118-4.203-31.826-12.911v-0.3  l-21.017-21.017l63.653-63.653l21.017,21.017C158.307,431.496,158.307,460.018,140.591,477.433z"/>
<g>
</g>
<g>
</g>
<g>
</g>
<g>
</g>
<g>
</g>
<g>
</g>
<g>
</g>
<g>
</g>
<g>
</g>
<g>
</g>
<g>
</g>
<g>
</g>
<g>
</g>
<g>
</g>
<g>
</g>
</svg>
