<?xml version="1.0" encoding="iso-8859-1"?>
<!-- Generator: Adobe Illustrator 19.0.0, SVG Export Plug-In . SVG Version: 6.00 Build 0)  -->
<svg xmlns="http://www.w3.org/2000/svg" xmlns:xlink="http://www.w3.org/1999/xlink" version="1.1" id="Capa_1" x="0px" y="0px" viewBox="0 0 512 512" style="enable-background:new 0 0 512 512;" xml:space="preserve">
<path style="fill:#FF9F19;" d="M271,197.001v30c0,8.399-6.599,15-15,15s-15-6.601-15-15v-30c0-8.401,6.599-15,15-15  S271,188.6,271,197.001z"/>
<path style="fill:#F28618;" d="M271,197.001v30c0,8.399-6.599,15-15,15v-60C264.401,182.001,271,188.6,271,197.001z"/>
<path style="fill:#FF80C0;" d="M121,437c0,2.842,0.802,5.559,2.239,7.885l51.552,7.545L256,362l-78.101-67.489l-54.66-15.396  C121.802,281.442,121,284.159,121,287C121,341.279,121,382.721,121,437z"/>
<path style="fill:#E673AD;" d="M391,437V287c0-2.842-0.802-5.559-2.239-7.885l-44.271,8.909L256,362l79.635,68.447l53.125,14.437  C390.198,442.56,391,439.843,391,437z"/>
<path style="fill:#F26B7D;" d="M388.9,444.8c-1.5,2.399-3.6,4.199-6.301,5.7c-43.198,21.599-76.5,38.099-120,60  c-0.899,0.298-2.098,0.899-3.3,1.199c-0.899,0.3-2.1,0.3-3.3,0.3s-2.401,0-3.3-0.3c-1.201-0.3-2.401-0.901-3.3-1.199  c-43.5-21.901-76.802-38.401-120-60c-2.701-1.501-4.801-3.301-6.301-5.7L256,362L388.9,444.8z"/>
<path style="fill:#CF4529;" d="M388.9,444.8c-1.5,2.399-3.6,4.199-6.301,5.7c-43.198,21.599-76.5,38.099-120,60  c-0.899,0.298-2.098,0.899-3.3,1.199c-0.899,0.3-2.1,0.3-3.3,0.3V362L388.9,444.8z"/>
<path style="fill:#E55639;" d="M388.9,279.201L256,362l-132.9-82.8c1.5-2.401,3.6-4.2,6.301-5.7c43.198-21.601,76.5-38.101,120-60  c2.098-0.901,4.199-1.5,6.599-1.5s4.501,0.599,6.599,1.5c43.5,21.899,76.802,38.399,120,60C385.3,275,387.4,276.799,388.9,279.201z"/>
<path style="fill:#DB5C6B;" d="M388.9,279.201L256,362v-150c2.401,0,4.501,0.599,6.599,1.5c43.5,21.899,76.802,38.399,120,60  C385.3,275,387.4,276.799,388.9,279.201z"/>
<path style="fill:#FF9F19;" d="M512,91.001c0,31.5-38.5,58.9-106.901,75.099c-0.899,0.3-2.098,0.601-3.3,0.601  c-6.899,0-12.9-4.801-14.7-11.7c-1.8-8.101,2.999-16.199,11.1-17.999C455.2,123.501,482,103,482,91.001c0-24.6-88.599-61-226-61  s-226,36.4-226,61c0,11.999,26.8,32.5,83.8,46c8.101,1.8,12.9,9.899,11.1,17.999c-2.1,8.101-10.201,13.2-17.999,11.1  C38.5,149.9,0,122.501,0,91.001c0-59.101,129.401-91,256-91S512,31.9,512,91.001z"/>
<path style="fill:#F39E31;" d="M512,91.001c0,31.5-38.5,58.9-106.901,75.099c-0.899,0.3-2.098,0.601-3.3,0.601  c-6.899,0-12.9-4.801-14.7-11.7c-1.8-8.101,2.999-16.199,11.1-17.999C455.2,123.501,482,103,482,91.001c0-24.6-88.599-61-226-61v-30  C382.599,0.001,512,31.9,512,91.001z"/>
<path style="fill:#FF9F19;" d="M226.044,181.415c-0.205,0-0.396,0-0.601-0.015c-21.211-0.82-42.026-2.52-61.846-5.039  c-8.218-1.055-14.033-8.555-12.993-16.772c1.055-8.203,8.657-13.77,16.772-12.993c18.955,2.417,38.892,4.043,59.238,4.834  c8.276,0.322,14.722,7.295,14.399,15.571C240.707,175.072,234.057,181.415,226.044,181.415z"/>
<path style="fill:#F39E31;" d="M285.956,181.415c-8.013,0-14.663-6.343-14.971-14.414c-0.322-8.276,6.123-15.249,14.399-15.571  c20.347-0.791,40.283-2.417,59.238-4.834c8.115-0.82,15.732,4.761,16.772,12.993c1.04,8.218-4.775,15.718-12.993,16.772  c-19.819,2.52-40.635,4.219-61.846,5.039C286.352,181.415,286.161,181.415,285.956,181.415z"/>
<path style="fill:#FFDE33;" d="M256,122.001c-24.901,0-45,20.099-45,45c0,24.899,20.099,45,45,45s45-20.101,45-45  C301,142.1,280.901,122.001,256,122.001z"/>
<path style="fill:#E55639;" d="M256,152.001c-8.401,0-15,6.599-15,15c0,8.399,6.599,15,15,15s15-6.601,15-15  C271,158.6,264.401,152.001,256,152.001z"/>
<path style="fill:#FFBC33;" d="M301,167.001c0,24.899-20.099,45-45,45v-90C280.901,122.001,301,142.1,301,167.001z"/>
<path style="fill:#CF4529;" d="M271,167.001c0,8.399-6.599,15-15,15v-30C264.401,152.001,271,158.6,271,167.001z"/>
<path style="fill:#FFBC33;" d="M376,212.001c-24.814,0-45-20.186-45-45s20.186-45,45-45s45,20.186,45,45  S400.814,212.001,376,212.001z"/>
<path style="fill:#CF4529;" d="M376,152.001c-8.276,0-15,6.724-15,15s6.724,15,15,15s15-6.724,15-15S384.276,152.001,376,152.001z"/>
<path style="fill:#FFDE33;" d="M136,212.001c-24.814,0-45-20.186-45-45s20.186-45,45-45s45,20.186,45,45  S160.814,212.001,136,212.001z"/>
<path style="fill:#E55639;" d="M136,152.001c-8.276,0-15,6.724-15,15s6.724,15,15,15s15-6.724,15-15S144.276,152.001,136,152.001z"/>
<path style="fill:#F99CD0;" d="M322.599,303.5l-60-30c-2.098-0.901-4.199-1.5-6.599-1.5s-4.501,0.599-6.599,1.5l-60,30  c-5.101,2.7-8.401,7.8-8.401,13.5v90c0,5.7,3.3,10.8,8.401,13.5l60,30c2.098,0.899,4.199,1.5,6.599,1.5s4.501-0.601,6.599-1.5l60-30  c5.101-2.7,8.401-7.8,8.401-13.5v-90C331,311.3,327.7,306.201,322.599,303.5z"/>
<path style="fill:#E38FBE;" d="M331,317v90c0,5.7-3.3,10.8-8.401,13.5l-60,30c-2.098,0.899-4.199,1.5-6.599,1.5V272  c2.401,0,4.501,0.599,6.599,1.5l60,30C327.7,306.201,331,311.3,331,317z"/>
<g>
</g>
<g>
</g>
<g>
</g>
<g>
</g>
<g>
</g>
<g>
</g>
<g>
</g>
<g>
</g>
<g>
</g>
<g>
</g>
<g>
</g>
<g>
</g>
<g>
</g>
<g>
</g>
<g>
</g>
</svg>
