<?xml version="1.0" encoding="iso-8859-1"?>
<!-- Generator: Adobe Illustrator 19.0.0, SVG Export Plug-In . SVG Version: 6.00 Build 0)  -->
<svg xmlns="http://www.w3.org/2000/svg" xmlns:xlink="http://www.w3.org/1999/xlink" version="1.1" id="Capa_1" x="0px" y="0px" viewBox="0 0 512 512" style="enable-background:new 0 0 512 512;" xml:space="preserve">
<path style="fill:#F9BC35;" d="M421,45v90c0,7.5-0.601,14.7-1.5,21.899L256.6,187.8H256L92.8,158.399  C91.901,150.599,91,142.8,91,135V45c0-8.401,6.599-15,15-15h300C414.401,30,421,36.599,421,45z"/>
<path style="fill:#F39E31;" d="M421,45v90c0,7.5-0.601,14.7-1.5,21.899L256.6,187.8H256V30h150C414.401,30,421,36.599,421,45z"/>
<path style="fill:#FF9F19;" d="M326.499,426.499c-16.199-16.5-25.499-41-25.499-63.8V345c0-8.401-6.599-15-15-15h-60  c-8.401,0-15,6.599-15,15v17.699c0,22.8-9.3,47.3-25.499,63.8c-4.501,4.2-5.7,10.501-3.301,16.201c2.4,5.7,7.8,9.3,13.8,9.3h120  c6,0,11.4-3.6,13.801-9.3C332.199,437,331,430.699,326.499,426.499z"/>
<path style="fill:#F28618;" d="M329.801,442.7C327.4,448.4,322,452,316,452h-60V330h30c8.401,0,15,6.599,15,15v17.699  c0,22.8,9.3,47.3,25.499,63.8C331,430.699,332.199,437,329.801,442.7z"/>
<path style="fill:#F9BC35;" d="M286,270h-60c-24.901,0-45,20.099-45,45c0,24.899,20.099,45,45,45h60c24.901,0,45-20.101,45-45  C331,290.099,310.901,270,286,270z"/>
<path style="fill:#F39E31;" d="M331,315c0,24.899-20.099,45-45,45h-30v-90h30C310.901,270,331,290.099,331,315z"/>
<path style="fill:#FFDE33;" d="M316,422H196c-24.901,0-45,20.099-45,45c0,24.899,20.099,45,45,45h120c24.901,0,45-20.101,45-45  C361,442.099,340.901,422,316,422z"/>
<path style="fill:#FFBC33;" d="M361,467c0,24.899-20.099,45-45,45h-60v-90h60C340.901,422,361,442.099,361,467z"/>
<path style="fill:#FF9F19;" d="M419.5,156.899C408.701,237.299,339.699,300,256,300c-83.101,0-151.8-62.1-163.2-141.601l32.999-33.3  c6-6,15.901-6,21.901,0l48.9,49.2l49.199-49.2c2.701-2.701,6.601-4.2,10.201-4.501c4.2-0.298,8.401,1.201,11.7,4.501l48.9,49.2  l49.199-49.2c6-6,15.901-6,21.901,0L419.5,156.899z"/>
<path style="fill:#F28618;" d="M419.5,156.899C408.701,237.299,339.699,300,256,300V120.599c4.2-0.298,8.401,1.201,11.7,4.501  l48.9,49.2l49.199-49.2c6-6,15.901-6,21.901,0L419.5,156.899z"/>
<path style="fill:#FFDE33;" d="M451,30c0,16.5-13.5,30-30,30H91c-16.5,0-30-13.5-30-30S74.5,0,91,0h330C437.5,0,451,13.5,451,30z"/>
<path style="fill:#FFBC33;" d="M451,30c0,16.5-13.5,30-30,30H256V0h165C437.5,0,451,13.5,451,30z"/>
<g>
</g>
<g>
</g>
<g>
</g>
<g>
</g>
<g>
</g>
<g>
</g>
<g>
</g>
<g>
</g>
<g>
</g>
<g>
</g>
<g>
</g>
<g>
</g>
<g>
</g>
<g>
</g>
<g>
</g>
</svg>
