<?xml version="1.0" encoding="iso-8859-1"?>
<!-- Generator: Adobe Illustrator 19.0.0, SVG Export Plug-In . SVG Version: 6.00 Build 0)  -->
<svg xmlns="http://www.w3.org/2000/svg" xmlns:xlink="http://www.w3.org/1999/xlink" version="1.1" id="Capa_1" x="0px" y="0px" viewBox="0 0 512 512" style="enable-background:new 0 0 512 512;" xml:space="preserve">
<path style="fill:#A1A7B3;" d="M166,391h-60c-8.291,0-15-6.709-15-15V135c0-8.291,6.709-15,15-15h60c8.291,0,15,6.709,15,15v241  C181,384.291,174.291,391,166,391z"/>
<path style="fill:#E6EEFF;" d="M466,421H166c-8.291,0-15-6.709-15-15V105c0-8.291,6.709-15,15-15h300c8.291,0,15,6.709,15,15v301  C481,414.291,474.291,421,466,421z"/>
<path style="fill:#DAE2F2;" d="M466,90H316v331h150c8.291,0,15-6.709,15-15V105C481,96.709,474.291,90,466,90z"/>
<path style="fill:#E55639;" d="M256.014,346c-0.003-0.003-0.005-0.007-0.008-0.01l29.99-59.986l-59.916,29.958  c-0.034,0.016-0.06,0.026-0.077,0.032L226,195.008c0.003-0.002,0.006-0.003,0.009-0.005c0.011,0.005,59.987,29.993,59.987,29.993  l-29.991-59.983c0.002-0.003,0.004-0.007,0.007-0.01L375.986,165c0.003,0.003,0.005,0.007,0.008,0.01l-29.99,59.986l59.984-29.992  c0.011,0.011,0.032,0.029,0.043,0.043L406,316c-0.016-0.007-59.996-29.996-59.996-29.996l29.991,59.983  c-0.003,0.004-0.005,0.008-0.009,0.013H256.014z"/>
<path style="fill:#CF4529;" d="M346.004,224.996l29.99-59.986c-0.003-0.003-0.005-0.007-0.008-0.01L316,165.001V346h59.986  c0.004-0.004,0.006-0.008,0.009-0.013l-29.991-59.983c0,0,59.98,29.989,59.996,29.996l0.031-120.953  c-0.011-0.014-0.032-0.033-0.043-0.043L346.004,224.996z"/>
<path style="fill:#A66342;" d="M76,60c-24.901,0-45,20.099-45,45v392c0,8.399,6.599,15,15,15h60c8.401,0,15-6.601,15-15V105  C121,80.099,100.901,60,76,60z"/>
<path style="fill:#995B3D;" d="M121,105v392c0,8.399-6.599,15-15,15H76V60C100.901,60,121,80.099,121,105z"/>
<path style="fill:#FFDE33;" d="M76,0C51.099,0,31,20.099,31,45c0,24.899,20.099,45,45,45s45-20.101,45-45C121,20.099,100.901,0,76,0  z"/>
<path style="fill:#FFBC33;" d="M121,45c0,24.899-20.099,45-45,45V0C100.901,0,121,20.099,121,45z"/>
<g>
</g>
<g>
</g>
<g>
</g>
<g>
</g>
<g>
</g>
<g>
</g>
<g>
</g>
<g>
</g>
<g>
</g>
<g>
</g>
<g>
</g>
<g>
</g>
<g>
</g>
<g>
</g>
<g>
</g>
</svg>
