<?xml version="1.0" encoding="iso-8859-1"?>
<!-- Generator: Adobe Illustrator 19.0.0, SVG Export Plug-In . SVG Version: 6.00 Build 0)  -->
<svg xmlns="http://www.w3.org/2000/svg" xmlns:xlink="http://www.w3.org/1999/xlink" version="1.1" id="Capa_1" x="0px" y="0px" viewBox="0 0 512 512" style="enable-background:new 0 0 512 512;" xml:space="preserve">
<polygon style="fill:#5C5F66;" points="99.88,475.565 36.332,412.015 121.02,327.327 163.43,327.284 183.614,349.465   184.569,390.876 "/>
<polygon style="fill:#53565C;" points="173.174,339.025 68.288,443.973 99.88,475.565 184.57,390.875 183.614,349.465 "/>
<rect x="164.357" y="222.774" transform="matrix(-0.7071 -0.7071 0.7071 -0.7071 143.3083 664.5793)" style="fill:#A1A7B3;" width="89.871" height="159.671"/>
<polygon style="fill:#979CA7;" points="152.996,359.215 184.613,390.832 297.518,277.927 265.871,246.281 "/>
<path style="fill:#A1A7B3;" d="M477.59,76.765l-20.97-20.97l-21.57-21.568c-2.695-2.697-6.59-4.194-10.484-4.194H323.609  c-22.468,0-41.641,16.477-44.636,38.644l-17.375,122.527c-0.9,4.493,0.898,9.287,4.194,12.581l21.269,21.271l20.97,21.269  c3.295,3.296,8.089,4.794,12.882,4.194l122.527-17.674c21.868-2.997,38.344-22.17,38.344-44.338V87.25  C481.783,83.356,480.285,79.461,477.59,76.765z"/>
<path style="fill:#979CA7;" d="M481.783,87.251v101.256c0,22.168-16.477,41.341-38.344,44.338l-122.527,17.674  c-4.792,0.6-9.586-0.898-12.882-4.194l-20.97-21.269l169.56-169.26l20.97,20.97C480.285,79.461,481.783,83.356,481.783,87.251z"/>
<path style="fill:#C4CAD9;" d="M476.091,75.269l-19.471-19.473l-20.072-20.07c-4.792-4.794-12.282-5.692-18.274-2.097  l-76.691,46.733c-5.991,3.595-11.084,8.987-14.679,14.979l-58.417,94.964c-3.595,5.991-2.695,13.481,2.097,18.574l16.477,16.478  l15.878,15.876c5.092,4.792,12.581,5.692,18.574,2.097l95.264-58.117c5.991-3.894,11.084-8.987,14.679-14.979l46.733-76.691  C481.783,87.85,480.885,80.061,476.091,75.269z"/>
<path style="fill:#B8BFCC;" d="M478.188,93.542l-46.733,76.691c-3.595,5.991-8.687,11.084-14.679,14.979l-95.264,58.117  c-5.991,3.595-13.481,2.695-18.574-2.097l-15.878-15.876l169.561-169.56l19.471,19.473C480.885,80.061,481.783,87.85,478.188,93.542  z"/>
<path style="fill:#7F838C;" d="M329.301,225.055l-42.54-42.54c-17.374-17.374-45.834-17.374-63.51,0  c-17.374,17.676-17.374,46.135,0,63.809l21.271,21.271l21.271,20.97c17.374,17.674,45.834,17.374,63.51,0  C346.675,270.889,346.675,242.43,329.301,225.055z"/>
<path style="fill:#757982;" d="M329.301,288.565c-17.676,17.374-46.135,17.674-63.51,0l-21.271-20.97l63.809-63.51l20.97,20.97  C346.675,242.43,346.675,270.889,329.301,288.565z"/>
<path style="fill:#7F838C;" d="M125.088,477.472l0.212-12.5c-0.212-4.023-1.483-7.836-4.237-10.59l-31.775-31.775l-31.986-31.562  c-2.541-2.966-6.567-4.449-10.378-4.449H34.636c-24.994,0-34.315,30.504-34.316,55.499l-0.211,24.784  c-0.001,12.286,5.084,23.725,13.345,31.986c8.05,8.05,19.276,12.923,31.775,13.133L69.801,512  C94.585,511.787,125.088,502.042,125.088,477.472z"/>
<path style="fill:#E6EEFF;" d="M498.858,13.257c-17.674-17.676-46.133-17.676-63.809,0c-17.374,17.376-17.374,45.834,0,63.51h0.3  c17.676,17.376,45.836,17.376,63.51,0C516.234,59.091,516.234,30.632,498.858,13.257z"/>
<path style="fill:#DAE2F2;" d="M498.858,76.765c-17.674,17.376-45.834,17.376-63.51,0l63.51-63.51  C516.234,30.632,516.234,59.091,498.858,76.765z"/>
<path style="fill:#757982;" d="M69.801,512l-24.572-0.001c-12.498-0.211-23.725-5.084-31.775-13.133l76.047-76.047l31.562,31.562  c2.754,2.754,4.025,6.567,4.237,10.59l-0.212,12.5C125.088,502.042,94.585,511.787,69.801,512z"/>
<g>
</g>
<g>
</g>
<g>
</g>
<g>
</g>
<g>
</g>
<g>
</g>
<g>
</g>
<g>
</g>
<g>
</g>
<g>
</g>
<g>
</g>
<g>
</g>
<g>
</g>
<g>
</g>
<g>
</g>
</svg>
