<?xml version="1.0" encoding="iso-8859-1"?>
<!-- Generator: Adobe Illustrator 19.0.0, SVG Export Plug-In . SVG Version: 6.00 Build 0)  -->
<svg xmlns="http://www.w3.org/2000/svg" xmlns:xlink="http://www.w3.org/1999/xlink" version="1.1" id="Capa_1" x="0px" y="0px" viewBox="0 0 512 512" style="enable-background:new 0 0 512 512;" xml:space="preserve">
<path style="fill:#E55639;" d="M391,15v46l-31.5,30h-207L121,61V15c0-8.401,6.599-15,15-15h240C384.401,0,391,6.599,391,15z"/>
<path style="fill:#CF4529;" d="M391,15v46l-31.5,30H256V0h120C384.401,0,391,6.599,391,15z"/>
<path style="fill:#A66342;" d="M271,136v60c0,8.399-6.599,15-15,15s-15-6.601-15-15v-60c0-8.401,6.599-15,15-15S271,127.599,271,136  z"/>
<path style="fill:#995B3D;" d="M271,136v60c0,8.399-6.599,15-15,15v-90C264.401,121,271,127.599,271,136z"/>
<path style="fill:#F9BC35;" d="M320.501,452.8L266.5,507.499C263.8,510.5,259.9,512,256,512s-7.8-1.5-10.499-4.501L191.499,452.8  c-5.7-5.7-5.7-15.3,0-21.301H320.5C326.201,437.5,326.201,447.1,320.501,452.8z"/>
<path style="fill:#F39E31;" d="M320.501,452.8L266.5,507.499C263.8,510.5,259.9,512,256,512v-80.501h64.501  C326.201,437.5,326.201,447.1,320.501,452.8z"/>
<path style="fill:#F9BC35;" d="M320.501,260.499H191.499c-5.7-5.999-5.7-15.599,0-21.299l54.001-53.701  C248.2,182.5,252.1,181,256,181s7.8,1.5,10.499,4.499L320.5,239.2C326.201,244.9,326.201,254.5,320.501,260.499z"/>
<g>
	<path style="fill:#F39E31;" d="M320.501,260.499H256V181c3.9,0,7.8,1.5,10.499,4.499L320.5,239.2   C326.201,244.9,326.201,254.5,320.501,260.499z"/>
	<path style="fill:#F39E31;" d="M416.605,335.395l-53.789-53.789c-5.859-5.859-15.352-5.859-21.211,0v128.789   c5.86,5.86,15.351,5.86,21.211,0l53.789-53.789C422.465,350.746,422.465,341.254,416.605,335.395z"/>
</g>
<path style="fill:#F9BC35;" d="M149.184,281.605l-53.789,53.789c-5.859,5.859-5.859,15.352,0,21.211l53.789,53.789  c5.86,5.86,15.351,5.86,21.211,0V281.605C164.535,275.746,155.043,275.746,149.184,281.605z"/>
<path style="fill:#FFDE33;" d="M347.199,346c21.601-42.001,27.601-83.701,29.101-99c0.601-3.602,0.601-6,0.601-6.301  c0.599-8.101-6-16.199-15.601-15.601c-0.3,0-2.701,0-6.301,0.601c-15.3,1.5-56.999,7.5-99,29.099  c-42.001-21.599-83.699-27.599-99-29.099c-3.6-0.601-6-0.601-6.301-0.601c-9.901-0.3-16.199,7.5-15.601,15.601  c0,0.3,0,2.699,0.601,6.301c1.5,15.298,7.5,56.999,29.101,99c-21.601,41.999-27.601,83.699-29.101,99  c-0.601,3.6-0.601,6-0.601,6.301C134.5,460,141.7,467.8,150.7,466.899c0.3,0,2.701,0,6.301-0.599c15.3-1.501,56.999-7.5,99-29.101  c33.3,16.8,76.199,27.9,99.6,29.7c2.401,0.3,4.499,0.3,6.599,0.3c8.401,0,15.3-7.5,14.702-15.899c0-0.3,0-2.701-0.601-6.301  C374.801,429.699,368.8,387.999,347.199,346z"/>
<g>
	<path style="fill:#FFBC33;" d="M376.3,445c0.601,3.6,0.601,6,0.601,6.301C377.5,459.7,370.6,467.2,362.199,467.2   c-2.1,0-4.199,0-6.599-0.3c-23.401-1.8-66.301-12.9-99.6-29.7V254.799c42.001-21.599,83.699-27.599,99-29.099   c3.6-0.601,6-0.601,6.301-0.601c9.6-0.599,16.199,7.5,15.601,15.601c0,0.3,0,2.699-0.601,6.301c-1.5,15.298-7.5,56.999-29.101,99   C368.8,387.999,374.801,429.699,376.3,445z"/>
	<path style="fill:#FFBC33;" d="M497,361h-46c-8.291,0-15-6.709-15-15s6.709-15,15-15h46c8.291,0,15,6.709,15,15   S505.291,361,497,361z"/>
	<path style="fill:#FFBC33;" d="M425.395,296.605c-5.859-5.859-5.859-15.352,0-21.211l30-30c5.859-5.859,15.352-5.859,21.211,0   s5.859,15.352,0,21.211l-30,30C440.746,302.465,431.254,302.465,425.395,296.605z"/>
	<path style="fill:#FFBC33;" d="M455.395,446.605l-30-30c-5.859-5.859-5.859-15.352,0-21.211s15.352-5.859,21.211,0l30,30   c5.859,5.859,5.859,15.352,0,21.211C470.746,452.465,461.254,452.465,455.395,446.605z"/>
</g>
<g>
	<path style="fill:#FFDE33;" d="M61,361H15c-8.291,0-15-6.709-15-15s6.709-15,15-15h46c8.291,0,15,6.709,15,15S69.291,361,61,361z"/>
	<path style="fill:#FFDE33;" d="M65.395,296.605l-30-30c-5.859-5.859-5.859-15.352,0-21.211s15.352-5.859,21.211,0l30,30   c5.859,5.859,5.859,15.352,0,21.211C80.746,302.465,71.254,302.465,65.395,296.605z"/>
	<path style="fill:#FFDE33;" d="M35.395,446.605c-5.859-5.859-5.859-15.352,0-21.211l30-30c5.859-5.859,15.352-5.859,21.211,0   s5.859,15.352,0,21.211l-30,30C50.746,452.465,41.254,452.465,35.395,446.605z"/>
</g>
<path style="fill:#F9BC35;" d="M245.501,335.499c-3.001,2.701-6.901,4.2-10.801,4.2c-3.6,0-7.5-1.5-10.499-4.2L135.7,247  c-0.601-3.602-0.601-6-0.601-6.301c-0.599-8.101,5.7-15.901,15.601-15.601c0.3,0,2.701,0,6.301,0.601l88.5,88.5  C251.201,319.9,251.201,329.5,245.501,335.499z"/>
<g>
	<path style="fill:#F39E31;" d="M376.901,451.3c0.599,8.399-6.301,15.899-14.702,15.899c-2.1,0-4.199,0-6.599-0.3L266.499,377.8   c-5.7-5.7-5.7-15.3,0-21.301c6-5.7,15.601-5.7,21.301,0l88.5,88.5C376.901,448.599,376.901,451,376.901,451.3z"/>
	<path style="fill:#F39E31;" d="M376.901,240.7c0,0.3,0,2.699-0.601,6.301L287.8,335.5c-2.999,2.701-6.899,4.2-10.499,4.2   c-3.9,0-7.8-1.5-10.801-4.2c-5.7-5.999-5.7-15.599,0-21.299l88.5-88.5c3.6-0.601,6-0.601,6.301-0.601   C370.901,224.5,377.5,232.599,376.901,240.7z"/>
</g>
<g>
	<path style="fill:#F9BC35;" d="M245.501,377.8L157,466.3c-3.6,0.599-6,0.599-6.301,0.599c-9,0.901-16.199-6.899-15.601-15.599   c0-0.3,0-2.701,0.601-6.301l88.5-88.5c5.7-5.7,15.3-5.7,21.301,0C251.201,362.5,251.201,372.1,245.501,377.8z"/>
	<path style="fill:#F9BC35;" d="M256,301c-24.901,0-45,20.099-45,45c0,24.899,20.099,45,45,45s45-20.101,45-45   C301,321.099,280.901,301,256,301z"/>
</g>
<path style="fill:#F39E31;" d="M301,346c0,24.899-20.099,45-45,45v-90C280.901,301,301,321.099,301,346z"/>
<path style="fill:#EC7838;" d="M391,61v15c0,41.1-33.6,75-75,75H196c-41.4,0-75-33.9-75-75V61H391z"/>
<path style="fill:#DB632C;" d="M391,61v15c0,41.1-33.6,75-75,75h-60V61H391z"/>
<g>
</g>
<g>
</g>
<g>
</g>
<g>
</g>
<g>
</g>
<g>
</g>
<g>
</g>
<g>
</g>
<g>
</g>
<g>
</g>
<g>
</g>
<g>
</g>
<g>
</g>
<g>
</g>
<g>
</g>
</svg>
