<?xml version="1.0" encoding="iso-8859-1"?>
<!-- Generator: Adobe Illustrator 19.0.0, SVG Export Plug-In . SVG Version: 6.00 Build 0)  -->
<svg xmlns="http://www.w3.org/2000/svg" xmlns:xlink="http://www.w3.org/1999/xlink" version="1.1" id="Capa_1" x="0px" y="0px" viewBox="0 0 512 512" style="enable-background:new 0 0 512 512;" xml:space="preserve">
<path style="fill:#4DA6FF;" d="M413.5,105.901c-15.901-9.302-29.099-22.5-38.401-38.401c-2.699-4.799-7.798-7.5-12.9-7.5H149.801  c-5.101,0-10.201,2.701-12.9,7.5c-9.302,15.901-22.5,29.099-38.401,38.401c-4.799,2.699-7.5,7.798-7.5,12.9V226  c0,15.3,2.999,30.3,8.699,45C119.5,326.8,172,378.5,211,410.6c15,12.001,27.9,21.601,36.599,27.599  c2.401,1.8,5.402,2.701,8.401,2.701c2.999,0,6-0.901,8.699-2.701C274.6,431.3,287.199,422,301,410.9  c40.8-32.999,92.1-84.101,111.899-139.9C418,256.3,421,241.3,421,226V118.801C421,113.699,418.299,108.6,413.5,105.901z"/>
<path style="fill:#4596E6;" d="M421,118.801V226c0,15.3-2.999,30.3-8.101,45C393.1,326.8,341.8,377.901,301,410.9  c-13.801,11.1-26.4,20.4-36.301,27.299c-2.699,1.8-5.7,2.701-8.699,2.701V60h106.199c5.101,0,10.201,2.701,12.9,7.5  c9.302,15.901,22.5,29.099,38.401,38.401C418.299,108.6,421,113.699,421,118.801z"/>
<path style="fill:#E6EEFF;" d="M436,181v45c0,15.3-2.999,30.3-8.101,45H301v154.9c-13.801,11.1-26.4,20.4-36.301,27.299  c-2.699,1.8-5.7,2.701-8.699,2.701s-6-0.901-8.401-2.701C238.9,447.201,226,437.601,211,425.6V271H84.699  C78.999,256.3,76,241.3,76,226v-45h135V45h90v136H436z"/>
<path style="fill:#DAE2F2;" d="M436,181v45c0,15.3-2.999,30.3-8.101,45H301v154.9c-13.801,11.1-26.4,20.4-36.301,27.299  c-2.699,1.8-5.7,2.701-8.699,2.701V45h45v136H436z"/>
<path style="fill:#C4CAD9;" d="M464.801,60C440.501,59.399,421,39.3,421,15c0-8.401-6.599-15-15-15H106c-8.401,0-15,6.599-15,15  c0,24.901-20.099,45-45,45c-8.401,0-15,6.599-15,15v151c0,156,208.5,278.8,217.5,283.9c2.4,1.5,4.799,2.1,7.5,2.1  c2.701,0,5.1-0.601,7.5-2.1C272.5,504.8,481,382,481,226V75C481,66.301,473.2,59.399,464.801,60z M421,226  c0,15.3-2.999,30.3-8.101,45C393.1,326.8,341.8,377.901,301,410.9c-13.801,11.1-26.4,20.4-36.301,27.299  c-2.699,1.8-5.7,2.701-8.699,2.701s-6-0.901-8.401-2.701C238.9,432.201,226,422.601,211,410.6c-39-32.1-91.5-83.8-111.301-139.6  C93.999,256.3,91,241.3,91,226V118.801c0-5.101,2.701-10.201,7.5-12.9c15.901-9.302,29.099-22.5,38.401-38.401  c2.699-4.799,7.798-7.5,12.9-7.5h212.398c5.102,0,10.201,2.701,12.9,7.5c9.302,15.901,22.5,29.099,38.401,38.401  c4.799,2.699,7.5,7.798,7.5,12.9L421,226L421,226z"/>
<path style="fill:#B8BFCC;" d="M464.801,60C440.501,59.399,421,39.3,421,15c0-8.401-6.599-15-15-15H256v60h106.199  c5.102,0,10.201,2.701,12.9,7.5c9.302,15.901,22.5,29.099,38.401,38.401c4.799,2.699,7.5,7.798,7.5,12.9V226  c0,15.3-2.999,30.3-8.101,45C393.1,326.8,341.8,377.901,301,410.9c-13.801,11.1-26.4,20.4-36.301,27.299  c-2.699,1.8-5.7,2.701-8.699,2.701V512c2.701,0,5.1-0.601,7.5-2.1C272.5,504.8,481,382,481,226V75  C481,66.301,473.2,59.399,464.801,60z"/>
<g>
</g>
<g>
</g>
<g>
</g>
<g>
</g>
<g>
</g>
<g>
</g>
<g>
</g>
<g>
</g>
<g>
</g>
<g>
</g>
<g>
</g>
<g>
</g>
<g>
</g>
<g>
</g>
<g>
</g>
</svg>
