<?xml version="1.0" encoding="iso-8859-1"?>
<!-- Generator: Adobe Illustrator 19.0.0, SVG Export Plug-In . SVG Version: 6.00 Build 0)  -->
<svg xmlns="http://www.w3.org/2000/svg" xmlns:xlink="http://www.w3.org/1999/xlink" version="1.1" id="Capa_1" x="0px" y="0px" viewBox="0 0 512 512" style="enable-background:new 0 0 512 512;" xml:space="preserve">
<path style="fill:#E55639;" d="M454.265,512H57.666c-14.7,0-27.9-6.899-36.601-18.6c-8.399-12.001-10.8-26.7-6.299-40.499  L27.065,416.6c4.501-13.5,15-24,28.5-28.5h401.4c12.9,4.501,23.399,15,27.9,28.5l12.299,36.301C506.765,482,485.166,512,454.265,512  z"/>
<path style="fill:#CF4529;" d="M454.265,512h-198.3V388.1h201c12.9,4.501,23.399,15,27.9,28.5l12.299,36.301  C506.765,482,485.166,512,454.265,512z"/>
<path style="fill:#F9BC35;" d="M420.966,197c0,16.8-8.699,36.301-19.2,49.501l-25.5-4.501h-60.3c-24.6,0-46.199-11.7-60-30  c-13.801,18.3-35.4,30-60,30h-60.3l-25.499,4.501c-10.501-13.2-19.2-32.701-19.2-49.501c0-24.6,12.001-47.401,31.5-61.199  c-0.899-4.501-1.5-9.001-1.5-13.801c0-32.999,27.001-60,60-60h150c32.999,0,60,27.001,60,60c0,4.799-0.601,9.3-1.5,13.801  C408.965,149.599,420.966,172.4,420.966,197z"/>
<path style="fill:#F39E31;" d="M420.966,197c0,16.8-8.699,36.301-19.2,49.501l-25.5-4.501h-60.3c-24.6,0-46.199-11.7-60-30V62h75  c32.999,0,60,27.001,60,60c0,4.799-0.601,9.3-1.5,13.801C408.965,149.599,420.966,172.4,420.966,197z"/>
<path style="fill:#F9BC35;" d="M450.665,294.8c2.1,26.4-7.5,52.2-26.1,70.8h-337.2c-18.6-18.6-28.2-44.399-26.1-70.8  c3.6-46.5,45-82.8,94.2-82.8h40.499c24.901,0,45-20.099,45-45c0-8.401,6.599-15,15-15s15,6.599,15,15c0,24.901,20.099,45,45,45  h40.499C405.665,212,447.065,248.301,450.665,294.8z"/>
<path style="fill:#F39E31;" d="M450.665,294.8c2.1,26.4-7.5,52.2-26.1,70.8h-168.6V152c8.401,0,15,6.599,15,15  c0,24.901,20.099,45,45,45h40.499C405.665,212,447.065,248.301,450.665,294.8z"/>
<path style="fill:#FFCF99;" d="M392.165,354.2L255.966,497l-136.2-142.8l19.347-10.101c9.335-4.874,16.414-13.182,19.744-23.172  l6.808-20.426h180.601l6.808,20.426c3.33,9.991,10.408,18.298,19.744,23.172L392.165,354.2z"/>
<polygon style="fill:#FFC380;" points="392.165,354.2 255.966,497 255.966,300.5 346.266,300.5 358.265,336.501 "/>
<path style="fill:#FFDFB3;" d="M360.966,242v9.901c0,58.799-46.199,110.099-105,110.099c-57.9,0-105-46.8-105-105v-15  c29.399,0,34.799,0,34.799,0h10.201c24.6,0,46.199-11.7,60-30c13.801,18.3,35.4,30,60,30c5.7,0,6.899,0,6.899,0H360.966z"/>
<path style="fill:#FFCF99;" d="M360.966,242v9.901c0,58.799-46.199,110.099-105,110.099V212c13.801,18.3,35.4,30,60,30  c5.7,0,6.899,0,6.899,0H360.966z"/>
<path style="fill:#E6EEFF;" d="M442.865,433.1l-180.899,77.701c-1.8,0.599-3.9,1.199-6,1.199s-4.2-0.601-6-1.199L69.066,433.1  c-23.701-9.901-29.7-40.8-11.4-59.099l16.5-16.501c17.401-17.399,46.199-17.399,63.6,0l118.2,118.2l118.2-118.2  c17.401-17.399,46.199-17.399,63.6,0l16.5,16.501C472.565,392.3,466.566,423.199,442.865,433.1z"/>
<path style="fill:#DAE2F2;" d="M442.865,433.1l-180.899,77.701c-1.8,0.599-3.9,1.199-6,1.199v-36.301l118.2-118.2  c17.401-17.399,46.199-17.399,63.6,0l16.5,16.501C472.565,392.3,466.566,423.199,442.865,433.1z"/>
<path style="fill:#FFDE33;" d="M305.466,4.501L285.965,23.7l-19.5-19.199C263.766,1.5,259.866,0,255.966,0s-7.8,1.5-10.499,4.501  L225.966,23.7L206.465,4.501c-9.3-9.6-25.499-2.701-25.499,10.499v92c0,8.401,6.599,15,15,15h120c8.401,0,15-6.599,15-15V15  C330.966,1.8,314.766-5.099,305.466,4.501z"/>
<path style="fill:#FFBC33;" d="M330.966,15v92c0,8.401-6.599,15-15,15h-60V0c3.9,0,7.8,1.5,10.499,4.501L285.966,23.7l19.501-19.199  C314.766-5.099,330.966,1.8,330.966,15z"/>
<g>
</g>
<g>
</g>
<g>
</g>
<g>
</g>
<g>
</g>
<g>
</g>
<g>
</g>
<g>
</g>
<g>
</g>
<g>
</g>
<g>
</g>
<g>
</g>
<g>
</g>
<g>
</g>
<g>
</g>
</svg>
