<?xml version="1.0" encoding="iso-8859-1"?>
<!-- Generator: Adobe Illustrator 19.0.0, SVG Export Plug-In . SVG Version: 6.00 Build 0)  -->
<svg xmlns="http://www.w3.org/2000/svg" xmlns:xlink="http://www.w3.org/1999/xlink" version="1.1" id="Capa_1" x="0px" y="0px" viewBox="0 0 512 512" style="enable-background:new 0 0 512 512;" xml:space="preserve">
<path style="fill:#FFDE33;" d="M300.977,45c0,8.399-6.599,15-15,15h-15v76c0,8.399-6.599,15-15,15c-8.401,0-15-6.601-15-15V60h-15  c-8.401,0-15-6.601-15-15c0-8.401,6.599-15,15-15h15V15c0-8.401,6.599-15,15-15c8.401,0,15,6.599,15,15v15h15  C294.378,30,300.977,36.599,300.977,45z"/>
<path style="fill:#FFBC33;" d="M300.977,45c0,8.399-6.599,15-15,15h-15v76c0,8.399-6.599,15-15,15V0c8.401,0,15,6.599,15,15v15h15  C294.378,30,300.977,36.599,300.977,45z"/>
<path style="fill:#B33B23;" d="M408.026,393c-0.433,0-0.867-0.019-1.303-0.057c-0.179-0.016-0.44-0.023-0.778-0.023h-87.85  c-6.07,0-11.542-3.658-13.861-9.268c-2.32-5.609-1.03-12.063,3.267-16.351c50.211-50.1,83.757-117.086,83.475-166.687  c-0.095-17.917-4.392-34.683-12.426-48.492c-2.022-3.477-2.563-7.62-1.503-11.5c1.062-3.879,3.636-7.17,7.146-9.134  c11.119-6.22,23.296-9.409,36.191-9.479c25.835-0.168,49.481,11.656,66.625,33.232c15.941,20.063,24.809,46.772,24.966,75.202l0,0  c0.34,59.898-40.253,105.189-93.355,158.174C415.795,391.436,411.98,393,408.026,393z"/>
<path style="fill:#CF4529;" d="M104.674,392.95c-3.962,0-7.775-1.569-10.594-4.382C38.802,333.413-0.301,289.786,0.025,230.447  c0.157-28.406,9.178-55.142,25.404-75.284c17.233-21.392,40.825-33.155,66.468-33.155c0.159,0,0.313,0,0.473,0.001  c12.701,0.07,24.71,3.172,35.692,9.221c3.562,1.961,6.174,5.285,7.239,9.209s0.492,8.113-1.589,11.606  c-8.31,13.95-12.83,31.728-12.727,50.06c0.275,49.767,34.145,116.108,84.281,165.083c4.363,4.262,5.711,10.741,3.41,16.389  s-7.792,9.341-13.892,9.341h-88.84c-0.188,0-0.372,0.004-0.556,0.013C105.15,392.944,104.912,392.95,104.674,392.95z"/>
<path style="fill:#E55639;" d="M404.481,137.039c-16.658-28.64-43.471-45.03-73.622-45.03c-0.157,0-0.318,0-0.476,0.001  c-33.695,0.184-58.579,21.344-74.724,50.765c-16.305-28.964-41.178-49.936-74.825-49.936c-0.149,0-0.301,0-0.451,0.001  c-29.431,0.161-55.752,16.032-72.263,43.556c-0.062,0.099-0.122,0.198-0.182,0.298c-11.224,18.844-17.086,41.521-16.953,65.579  c0.321,58.158,36.951,131.315,93.318,186.377c2.802,2.737,6.564,4.27,10.481,4.27h61.16h62.15c3.973,0,7.783-1.576,10.595-4.382  c56.391-56.266,92.614-130.097,92.285-188.094C420.851,177.297,415.148,155.373,404.481,137.039z"/>
<path style="fill:#CF4529;" d="M330.859,92.009c-0.157,0-0.318,0-0.476,0.001c-33.477,0.183-58.253,21.075-74.406,50.2v250.71  h62.118c3.973,0,7.783-1.576,10.595-4.382c56.391-56.266,92.614-130.097,92.285-188.094c-0.124-23.147-5.827-45.072-16.494-63.406  C387.823,108.398,361.01,92.009,330.859,92.009z"/>
<path style="fill:#F9BC35;" d="M405.977,362h-300c-24.901,0-45,20.099-45,45v60c0,24.899,20.099,45,45,45h300  c24.901,0,45-20.101,45-45v-60C450.977,382.099,430.878,362,405.977,362z"/>
<path style="fill:#F39E31;" d="M450.977,407v60c0,24.899-20.099,45-45,45h-150V362h150C430.878,362,450.977,382.099,450.977,407z"/>
<circle style="fill:#4596E6;" cx="345.98" cy="437" r="15"/>
<circle style="fill:#4DA6FF;" cx="165.98" cy="437" r="15"/>
<circle style="fill:#E55639;" cx="105.98" cy="437" r="15"/>
<circle style="fill:#CF4529;" cx="405.98" cy="437" r="15"/>
<path style="fill:#E55639;" d="M255.977,392c-24.901,0-45,20.099-45,45c0,24.899,20.099,45,45,45c24.901,0,45-20.101,45-45  C300.977,412.099,280.878,392,255.977,392z"/>
<path style="fill:#CF4529;" d="M300.977,437c0,24.899-20.099,45-45,45v-90C280.878,392,300.977,412.099,300.977,437z"/>
<g>
</g>
<g>
</g>
<g>
</g>
<g>
</g>
<g>
</g>
<g>
</g>
<g>
</g>
<g>
</g>
<g>
</g>
<g>
</g>
<g>
</g>
<g>
</g>
<g>
</g>
<g>
</g>
<g>
</g>
</svg>
