<?xml version="1.0" encoding="iso-8859-1"?>
<!-- Generator: Adobe Illustrator 19.0.0, SVG Export Plug-In . SVG Version: 6.00 Build 0)  -->
<svg xmlns="http://www.w3.org/2000/svg" xmlns:xlink="http://www.w3.org/1999/xlink" version="1.1" id="Capa_1" x="0px" y="0px" viewBox="0 0 512 512" style="enable-background:new 0 0 512 512;" xml:space="preserve">
<path style="fill:#F9BC35;" d="M135,136c-24.814,0-45-20.186-45-45s20.186-45,45-45s45,20.186,45,45S159.814,136,135,136z"/>
<path style="fill:#F39E31;" d="M377,136c-24.814,0-45-20.186-45-45s20.186-45,45-45s45,20.186,45,45S401.814,136,377,136z"/>
<path style="fill:#A66342;" d="M467,226h-45v-78.6c0-22.8-18.6-41.4-41.4-41.4h-57.299C312.8,96.4,286.601,76,256,76  s-55.8,20.4-66.301,30H131.4c-22.8,0-41.4,18.6-41.4,41.4V226H45c-8.401,0-15,6.599-15,15v30c0,26.1,9.6,51,27.001,70.499L135,406  h242l77.999-64.501C472.4,322,482,297.1,482,271v-30C482,232.599,475.401,226,467,226z"/>
<path style="fill:#995B3D;" d="M482,241v30c0,26.1-9.6,51-27.001,70.499L377,406H256V76c30.601,0,56.8,20.4,67.301,30H380.6  c22.8,0,41.4,18.6,41.4,41.4V226h45C475.401,226,482,232.599,482,241z"/>
<path style="fill:#FFBC33;" d="M286,316h-30v30h30c8.291,0,15-6.709,15-15S294.291,316,286,316z"/>
<path style="fill:#5C5F66;" d="M75,316c-41.4,0-75,33.6-75,75s33.6,75,75,75s75-33.6,75-75S116.4,316,75,316z"/>
<path style="fill:#53565C;" d="M150,391c0,41.4-33.6,75-75,75V316C116.4,316,150,349.6,150,391z"/>
<path style="fill:#C4CAD9;" d="M75,346c-24.901,0-45,20.099-45,45c0,24.899,20.099,45,45,45s45-20.101,45-45  C120,366.099,99.901,346,75,346z"/>
<path style="fill:#B8BFCC;" d="M120,391c0,24.899-20.099,45-45,45v-90C99.901,346,120,366.099,120,391z"/>
<path style="fill:#5C5F66;" d="M90,391c0,8.399-6.599,15-15,15s-15-6.601-15-15c0-8.401,6.599-15,15-15S90,382.599,90,391z"/>
<path style="fill:#53565C;" d="M90,391c0,8.399-6.599,15-15,15v-30C83.401,376,90,382.599,90,391z"/>
<path style="fill:#5C5F66;" d="M437,316c-41.4,0-75,33.6-75,75s33.6,75,75,75s75-33.6,75-75S478.4,316,437,316z"/>
<path style="fill:#53565C;" d="M512,391c0,41.4-33.6,75-75,75V316C478.4,316,512,349.6,512,391z"/>
<path style="fill:#C4CAD9;" d="M437,346c-24.901,0-45,20.099-45,45c0,24.899,20.099,45,45,45s45-20.101,45-45  C482,366.099,461.901,346,437,346z"/>
<path style="fill:#B8BFCC;" d="M482,391c0,24.899-20.099,45-45,45v-90C461.901,346,482,366.099,482,391z"/>
<path style="fill:#5C5F66;" d="M452,391c0,8.399-6.599,15-15,15s-15-6.601-15-15c0-8.401,6.599-15,15-15S452,382.599,452,391z"/>
<path style="fill:#53565C;" d="M452,391c0,8.399-6.599,15-15,15v-30C445.401,376,452,382.599,452,391z"/>
<polygon style="fill:#5C5F66;" points="347,286 165,286 211.901,166 301.601,166 "/>
<polygon style="fill:#53565C;" points="347,286 256,286 256,166 301.601,166 "/>
<path style="fill:#FF80C0;" d="M165.372,285.998C156.988,286.039,150,279.384,150,271v-90c0-8.284,6.716-15,15-15h76v45  C241,252.228,206.554,285.798,165.372,285.998z"/>
<path style="fill:#E673AD;" d="M271,211v-45h76c8.284,0,15,6.716,15,15v90c0,8.384-6.988,15.039-15.372,14.998  C305.446,285.798,271,252.228,271,211z"/>
<g>
</g>
<g>
</g>
<g>
</g>
<g>
</g>
<g>
</g>
<g>
</g>
<g>
</g>
<g>
</g>
<g>
</g>
<g>
</g>
<g>
</g>
<g>
</g>
<g>
</g>
<g>
</g>
<g>
</g>
</svg>
