<?xml version="1.0" encoding="iso-8859-1"?>
<!-- Generator: Adobe Illustrator 19.0.0, SVG Export Plug-In . SVG Version: 6.00 Build 0)  -->
<svg xmlns="http://www.w3.org/2000/svg" xmlns:xlink="http://www.w3.org/1999/xlink" version="1.1" id="Capa_1" x="0px" y="0px" viewBox="0 0 512 512" style="enable-background:new 0 0 512 512;" xml:space="preserve">
<path style="fill:#606060;" d="M151,0h-45C64.579,0,31,33.579,31,75v377l120-15V0z"/>
<path style="fill:#8C5438;" d="M481,15v392l-15,15H121V0h345C474.401,0,481,6.599,481,15z"/>
<path style="fill:#804C33;" d="M481,15v392l-15,15H301V0h165C474.401,0,481,6.599,481,15z"/>
<path style="fill:#A66342;" d="M406,90c-8.401,0-15-6.601-15-15c0-8.401-6.599-15-15-15H226c-8.401,0-15,6.599-15,15  c0,8.399-6.599,15-15,15s-15,6.599-15,15v212c0,8.399,6.599,15,15,15s15,6.599,15,15c0,8.399,6.599,15,15,15h150  c8.401,0,15-6.601,15-15c0-8.401,6.599-15,15-15s15-6.601,15-15V105C421,96.599,414.401,90,406,90z"/>
<path style="fill:#995B3D;" d="M421,105v212c0,8.399-6.599,15-15,15s-15,6.599-15,15c0,8.399-6.599,15-15,15h-75V60h75  c8.401,0,15,6.599,15,15c0,8.399,6.599,15,15,15S421,96.599,421,105z"/>
<path style="fill:#53565C;" d="M136,392H91c-33.091,0-60,26.909-60,60s26.909,60,60,60h45c8.291,0,15-6.709,15-15v-90  C151,398.709,144.291,392,136,392z"/>
<path style="fill:#E6EEFF;" d="M416.499,200.2C414.401,198.1,364.3,151,301,151s-113.401,47.1-115.499,49.2  C182.8,202.899,181,206.8,181,211s1.8,8.099,4.501,10.8C187.599,223.9,237.7,271,301,271s113.401-47.1,115.499-49.2  C419.2,219.099,421,215.2,421,211S419.2,202.899,416.499,200.2z"/>
<path style="fill:#DAE2F2;" d="M301,151v120c63.3,0,113.401-47.1,115.499-49.2C419.2,219.099,421,215.2,421,211  s-1.8-8.101-4.501-10.8C414.401,198.1,364.3,151,301,151z"/>
<path style="fill:#4DA6FF;" d="M301,151c-32.999,0-60,26.999-60,60c0,32.999,27.001,60,60,60s60-27.001,60-60  C361,177.999,333.999,151,301,151z"/>
<path style="fill:#7F838C;" d="M474.401,484.399c5.4,3.9,7.798,10.801,5.999,17.1C478.299,507.8,472.599,512,466,512H121  c-32.999,0-60-27.001-60-60c0-33.001,27.001-60,60-60h345c6.599,0,12.299,4.2,14.399,10.499c1.8,6.301-0.599,13.2-5.999,16.8  c-0.901,0.601-2.1,1.5-3.301,2.701L391,452l80.4,30C472.599,483.199,473.5,483.8,474.401,484.399z"/>
<path style="fill:#757982;" d="M474.401,484.399c5.4,3.9,7.798,10.801,5.999,17.1C478.299,507.8,472.599,512,466,512H301V392h165  c6.599,0,12.299,4.2,14.399,10.499c1.8,6.301-0.599,13.2-5.999,16.8c-0.901,0.601-2.1,1.5-3.301,2.701L391,452l80.4,30  C472.599,483.199,473.5,483.8,474.401,484.399z"/>
<path style="fill:#4596E6;" d="M361,211c0,32.999-27.001,60-60,60V151C333.999,151,361,177.999,361,211z"/>
<path style="fill:#E6EEFF;" d="M451,452c0-11.4,12.599-24.3,20.099-30H121c-16.5,0-30,13.5-30,30s13.5,30,30,30h350.4  C464.2,476.6,451,463.999,451,452z"/>
<path style="fill:#DAE2F2;" d="M471.4,482H301v-60h170.099c-7.5,5.7-20.099,18.6-20.099,30C451,463.999,464.2,476.6,471.4,482z"/>
<g>
</g>
<g>
</g>
<g>
</g>
<g>
</g>
<g>
</g>
<g>
</g>
<g>
</g>
<g>
</g>
<g>
</g>
<g>
</g>
<g>
</g>
<g>
</g>
<g>
</g>
<g>
</g>
<g>
</g>
</svg>
