<?xml version="1.0" encoding="iso-8859-1"?>
<!-- Generator: Adobe Illustrator 19.0.0, SVG Export Plug-In . SVG Version: 6.00 Build 0)  -->
<svg xmlns="http://www.w3.org/2000/svg" xmlns:xlink="http://www.w3.org/1999/xlink" version="1.1" id="Capa_1" x="0px" y="0px" viewBox="0 0 512 512" style="enable-background:new 0 0 512 512;" xml:space="preserve">
<path style="fill:#A66342;" d="M309.397,1.535l-46.799,23.397c-2.098,0.901-4.199,1.501-6.599,1.501c-2.4,0-4.501-0.601-6.599-1.501  L202.603,1.535c-11.099-5.099-21.597,3.3-21.597,13.499V76.03c0,36.296,25.798,66.594,59.996,73.495c4.799,0.899,9.9,1.5,14.999,1.5  c5.099,0,10.2-0.601,14.999-1.5c34.198-6.901,59.996-37.199,59.996-73.495V15.034C330.995,4.835,320.497-3.564,309.397,1.535z"/>
<path style="fill:#995B3D;" d="M330.995,15.035v60.996c0,36.296-25.798,66.594-59.996,73.495c-4.799,0.899-9.9,1.5-14.999,1.5  V26.434c2.401,0,4.501-0.601,6.599-1.501l46.799-23.397C320.497-3.564,330.995,4.835,330.995,15.035z"/>
<path style="fill:#A66342;" d="M450.986,377.01c0-107.393-87.593-195.986-194.986-195.986c-53.695,0-102.592,22.897-137.691,58.295  c-35.398,35.097-57.295,83.994-57.295,137.691c-18.599,14.098-29.998,36.296-29.998,59.996c0,41.397,33.598,74.995,74.995,74.995  H405.99c41.397,0,74.995-33.598,74.995-74.995C480.984,413.306,469.585,391.108,450.986,377.01z"/>
<path style="fill:#995B3D;" d="M480.984,437.005c0,41.397-33.598,74.995-74.995,74.995H256V181.023  c107.393,0,194.986,88.593,194.986,195.986C469.585,391.108,480.984,413.306,480.984,437.005z"/>
<path style="fill:#F9BC35;" d="M300.997,377.01c0,17.998-10.799,35.397-29.998,42.296v17.7c0,8.398-6.599,14.999-14.999,14.999  c-8.4,0-14.999-6.601-14.999-14.999v-17.7c-7.799-2.699-15.299-6.898-22.198-13.499c-6-5.7-6-15.297-0.3-21.298  c5.7-6.001,15.299-6,21.299-0.3c5.099,5.099,10.799,7.799,16.198,7.799c2.1,0,3.9-0.3,5.7-1.201c5.7-2.399,9.299-7.797,9.299-13.798  c0-8.4-6.599-14.999-14.999-14.999c-24.899,0-44.997-20.1-44.997-44.997c0-18.899,12-35.698,29.698-42.298h0.3v-17.698  c0-8.4,6.599-14.999,14.999-14.999c8.4,0,14.999,6.599,14.999,14.999v17.398c9.9,3.301,19.199,9.9,27.297,19.8  c5.402,6.301,4.501,15.6-1.8,20.999c-6.299,5.4-15.598,4.499-20.997-1.8c-6.301-7.499-13.199-11.399-19.5-11.399  c-1.8,0-3.6,0.3-5.099,0.899c-6,2.1-9.9,7.799-9.9,14.1c0,8.398,6.599,14.999,14.999,14.999  C280.898,332.013,300.997,352.11,300.997,377.01z"/>
<g>
	<path style="fill:#F39E31;" d="M300.997,377.01c0,17.998-10.799,35.397-29.998,42.296v17.7c0,8.398-6.599,14.999-14.999,14.999   v-59.996c2.1,0,3.9-0.3,5.7-1.201c5.7-2.399,9.299-7.797,9.299-13.798c0-8.4-6.599-14.999-14.999-14.999v-29.998   C280.898,332.013,300.997,352.11,300.997,377.01z"/>
	<path style="fill:#F39E31;" d="M275.5,313.414c-6.301-7.499-13.199-11.399-19.5-11.399v-59.996c8.4,0,14.999,6.599,14.999,14.999   v17.398c9.9,3.301,19.199,9.9,27.297,19.8c5.402,6.301,4.501,15.6-1.8,20.999C290.198,320.614,280.898,319.713,275.5,313.414z"/>
</g>
<path style="fill:#5C5F66;" d="M211.003,196.022c-16.537,0-29.998-13.461-29.998-29.998s13.461-29.998,29.998-29.998h89.994  c16.537,0,29.998,13.461,29.998,29.998s-13.461,29.998-29.998,29.998H211.003z"/>
<path style="fill:#53565C;" d="M300.997,136.027H256v59.996h44.997c16.537,0,29.998-13.461,29.998-29.998  S317.534,136.027,300.997,136.027z"/>
<g>
</g>
<g>
</g>
<g>
</g>
<g>
</g>
<g>
</g>
<g>
</g>
<g>
</g>
<g>
</g>
<g>
</g>
<g>
</g>
<g>
</g>
<g>
</g>
<g>
</g>
<g>
</g>
<g>
</g>
</svg>
