<?xml version="1.0" encoding="iso-8859-1"?>
<!-- Generator: Adobe Illustrator 19.0.0, SVG Export Plug-In . SVG Version: 6.00 Build 0)  -->
<svg xmlns="http://www.w3.org/2000/svg" xmlns:xlink="http://www.w3.org/1999/xlink" version="1.1" id="Capa_1" x="0px" y="0px" viewBox="0 0 512 512" style="enable-background:new 0 0 512 512;" xml:space="preserve">
<path style="fill:#C4CAD9;" d="M197,331H75c-8.291,0-15-6.709-15-15v-60c0-8.291,6.709-15,15-15h122c8.291,0,15,6.709,15,15v60  C212,324.291,205.291,331,197,331z"/>
<path style="fill:#B8BFCC;" d="M197,241h-61v90h61c8.291,0,15-6.709,15-15v-60C212,247.709,205.291,241,197,241z"/>
<path style="fill:#7F838C;" d="M511.7,172.299c-0.601-12.599-2.401-24.899-5.4-36.899C494.299,82,462.201,33.6,415.401,2.399  C413,0.599,409.999,0,407,0s-6,0.599-8.401,2.399C365.3,24.6,339.5,55.899,323,90.7l-11.7,30.899c-6,20.101-9.3,41.102-9.3,62.701  v83.4c0,70.199,33.3,135.298,90,176.1c2.1,1.8,4.2,3.3,6.599,4.799c2.701,1.5,5.402,2.401,8.401,2.401s5.7-0.901,8.401-2.401  c2.399-1.5,4.499-2.999,6.599-4.799c56.7-40.801,90-105.901,90-176.1v-83.4C512,180.399,512,176.199,511.7,172.299z"/>
<path style="fill:#757982;" d="M512,184.3v83.4c0,70.199-33.3,135.298-90,176.1c-2.1,1.8-4.2,3.3-6.599,4.799  C412.7,450.099,409.999,451,407,451V0c2.999,0,6,0.599,8.401,2.399c46.8,31.201,78.898,79.601,90.899,133  c2.999,12.001,4.799,24.3,5.4,36.899C512,176.199,512,180.399,512,184.3z"/>
<path style="fill:#A66342;" d="M197,271H75c-24.814,0-45-20.186-45-45s20.186-45,45-45h122c24.814,0,45,20.186,45,45  S221.814,271,197,271z"/>
<path style="fill:#995B3D;" d="M197,181h-61v90h61c24.814,0,45-20.186,45-45S221.814,181,197,181z"/>
<path style="fill:#5C5F66;" d="M512,220v42l-90,90.298V497c0,8.399-6.599,15-15,15s-15-6.601-15-15V352.299L302,262v-42l90,89.7  V202.299l-80.7-80.7L323,90.7l69,69V136c0-8.401,6.599-15,15-15s15,6.599,15,15v83.699l84.3-84.3  c2.999,12.001,4.799,24.3,5.4,36.899l-89.7,90v47.401L512,220z"/>
<path style="fill:#53565C;" d="M512,220v42l-90,90.298V497c0,8.399-6.599,15-15,15V121c8.401,0,15,6.599,15,15v83.699l84.3-84.3  c2.999,12.001,4.799,24.3,5.4,36.899l-89.7,90v47.401L512,220z"/>
<path style="fill:#E6EEFF;" d="M227,301H45c-24.814,0-45,20.186-45,45v15l30,30h212l30-30v-15C272,321.186,251.814,301,227,301z"/>
<path style="fill:#DAE2F2;" d="M227,301h-91v90h106l30-30v-15C272,321.186,251.814,301,227,301z"/>
<path style="fill:#4DA6FF;" d="M0,361v105c0,24.814,20.186,46,45,46h182c24.814,0,45-21.186,45-46V361H0z"/>
<path style="fill:#4596E6;" d="M136,512h91c24.814,0,45-21.186,45-46V361H136V512z"/>
<g>
</g>
<g>
</g>
<g>
</g>
<g>
</g>
<g>
</g>
<g>
</g>
<g>
</g>
<g>
</g>
<g>
</g>
<g>
</g>
<g>
</g>
<g>
</g>
<g>
</g>
<g>
</g>
<g>
</g>
</svg>
