<?xml version="1.0" encoding="iso-8859-1"?>
<!-- Generator: Adobe Illustrator 19.0.0, SVG Export Plug-In . SVG Version: 6.00 Build 0)  -->
<svg xmlns="http://www.w3.org/2000/svg" xmlns:xlink="http://www.w3.org/1999/xlink" version="1.1" id="Capa_1" x="0px" y="0px" viewBox="0 0 512 512" style="enable-background:new 0 0 512 512;" xml:space="preserve">
<path style="fill:#C4CAD9;" d="M486.274,131.946L280.633,337.586c-5.949,5.949-15.295,5.949-21.244,0l-84.976-84.976  c-5.949-5.949-5.949-15.295,0-21.244L380.054,25.726c2.125-2.125,4.887-3.611,7.649-4.249L489.674,1.082l4.249-0.849  c5.098-0.85,9.984,0.638,13.595,4.249c3.61,3.611,5.099,8.497,4.249,13.595l-0.849,4.249l-20.395,101.971  C489.885,127.059,488.399,129.821,486.274,131.946z"/>
<path style="fill:#B8BFCC;" d="M486.274,131.946L280.633,337.586c-5.949,5.949-15.295,5.949-21.244,0l-42.487-42.487L507.517,4.482  c3.611,3.611,5.099,8.497,4.249,13.595l-0.849,4.249l-20.395,101.971C489.885,127.059,488.399,129.821,486.274,131.946z"/>
<path style="fill:#7F838C;" d="M301.877,401.319l-42.487,42.487c-2.974,2.974-7.011,4.461-10.835,4.46  c-3.824,0.001-7.435-1.486-10.409-4.46c-16.571-16.571-24.431-40.151-21.031-63.519l-21.457-21.457l-10.622,10.622l-42.487-42.487  l10.622-10.622l-21.457-21.457c-23.368,3.4-46.948-4.46-63.519-21.031c-5.949-5.949-5.949-15.295,0-21.244l42.487-42.487  c17.42-17.42,46.099-17.633,63.732,0l38.026,38.026l36.328,0.214c4.037-0.214,7.86,1.486,10.622,4.248  c2.762,2.762,4.461,6.586,4.248,10.622l0.214,36.328l38.026,38.026C319.509,355.219,319.297,383.898,301.877,401.319z"/>
<path style="fill:#757982;" d="M301.877,401.319l-42.487,42.487c-2.974,2.974-7.011,4.461-10.835,4.46  c-3.824,0.001-7.435-1.486-10.409-4.46c-16.571-16.571-24.431-40.151-21.031-63.519l-21.457-21.457l-10.622,10.622l-21.244-21.244  l95.597-95.597c2.762,2.762,4.461,6.586,4.248,10.622l0.214,36.328l38.026,38.026C319.509,355.219,319.297,383.898,301.877,401.319z  "/>
<path style="fill:#4DA6FF;" d="M173.139,421.288h-42.487l-40.364-40.364l-0.424-42.912c13.595-11.472,29.528-20.607,46.736-26.342  c5.313-1.913,11.26-0.212,15.509,3.611l43.55,43.55c4.037,4.037,5.311,9.984,3.611,15.509  C193.532,391.546,184.397,407.48,173.139,421.288z"/>
<path style="fill:#4596E6;" d="M173.139,421.288h-42.487l-19.969-19.969l63.732-63.732l21.244,21.244  c4.037,4.037,5.311,9.984,3.611,15.509C193.532,391.546,184.397,407.48,173.139,421.288z"/>
<path style="fill:#50B9FF;" d="M173.139,421.288c-6.587,7.86-13.597,14.87-21.244,21.244  c-14.021,11.473-29.742,20.394-47.161,26.342c-1.701,0.426-3.187,0.638-4.887,0.637c-3.824,0.001-7.647-1.698-10.409-4.46  L46.95,422.562c-4.037-4.037-5.524-9.771-3.824-15.296c5.949-17.419,14.657-33.352,25.917-47.586  c6.162-7.86,13.171-14.87,20.82-21.668L173.139,421.288z"/>
<path style="fill:#48A7E6;" d="M173.139,421.288c-6.587,7.86-13.597,14.87-21.244,21.244  c-14.021,11.473-29.742,20.394-47.161,26.342c-1.701,0.426-3.187,0.638-4.887,0.637c-3.824,0.001-7.647-1.698-10.409-4.46  l-21.244-21.244l63.732-63.732L173.139,421.288z"/>
<path style="fill:#7F838C;" d="M115.143,466.963l-0.214-12.534c0.001-3.824-1.486-7.86-4.248-10.622l-42.487-42.487  c-2.762-2.762-6.798-4.249-10.622-4.248l-12.534-0.214C20.182,397.07,0.001,417.252,0,441.893v25.069  c0,12.321,5.098,23.793,13.171,31.866C21.244,506.901,32.716,512,45.037,512h25.069C94.748,511.999,114.929,491.818,115.143,466.963  z"/>
<path style="fill:#757982;" d="M70.106,512H45.037c-12.321,0-23.793-5.098-31.866-13.171l76.266-76.266l21.244,21.244  c2.762,2.762,4.249,6.798,4.248,10.622l0.214,12.534C114.929,491.818,94.748,511.999,70.106,512z"/>
<g>
</g>
<g>
</g>
<g>
</g>
<g>
</g>
<g>
</g>
<g>
</g>
<g>
</g>
<g>
</g>
<g>
</g>
<g>
</g>
<g>
</g>
<g>
</g>
<g>
</g>
<g>
</g>
<g>
</g>
</svg>
