<?xml version="1.0" encoding="iso-8859-1"?>
<!-- Generator: Adobe Illustrator 19.0.0, SVG Export Plug-In . SVG Version: 6.00 Build 0)  -->
<svg xmlns="http://www.w3.org/2000/svg" xmlns:xlink="http://www.w3.org/1999/xlink" version="1.1" id="Capa_1" x="0px" y="0px" viewBox="0 0 512 512" style="enable-background:new 0 0 512 512;" xml:space="preserve">
<path style="fill:#5C5F66;" d="M481,45v211c0,8.399-6.599,15-15,15H45c-8.401,0-15-6.601-15-15V45C30,20.099,50.099,0,75,0h361  C460.901,0,481,20.099,481,45z"/>
<path style="fill:#53565C;" d="M482,45v211c0,8.399-6.599,15-15,15H256V0h181C461.901,0,482,20.099,482,45z"/>
<g>
	<path style="fill:#F9BC35;" d="M271,45v30c0,8.401-6.599,15-15,15s-15-6.599-15-15V45c0-8.401,6.599-15,15-15S271,36.599,271,45z"/>
	<path style="fill:#F9BC35;" d="M154.395,115.605l-30-30c-5.859-5.859-5.859-15.352,0-21.211c5.859-5.859,15.352-5.859,21.211,0   l30,30c5.859,5.859,5.859,15.352,0,21.211C169.746,121.465,160.254,121.465,154.395,115.605z"/>
</g>
<g>
	<path style="fill:#F39E31;" d="M335.395,115.605c-5.859-5.859-5.859-15.352,0-21.211l31-30c5.859-5.859,15.352-5.859,21.211,0   s5.859,15.352,0,21.211l-31,30C350.746,121.465,341.254,121.465,335.395,115.605z"/>
	<path style="fill:#F39E31;" d="M271,45v30c0,8.401-6.599,15-15,15V30C264.401,30,271,36.599,271,45z"/>
</g>
<path style="fill:#F9BC35;" d="M433.9,250l-2.699,9.901H79.799L77.1,250c-6.601-25.201,5.4-47.999,43.2-58.2  c5.099-1.199,9.3-6.4,10.499-11.499c12.301-45.901,36.901-48.9,69.6-40.201c5.099,1.5,10.8,0,14.399-3.9  c15.3-15.3,28.2-21.899,40.201-21.899c14.099,0,26.7,8.399,40.201,21.899c3.6,3.9,9,5.4,14.399,3.9  c45.601-12.001,61.601,7.5,70.6,40.201c1.199,5.099,5.4,10.3,10.499,11.499C428.5,202,440.501,224.799,433.9,250z"/>
<path style="fill:#F39E31;" d="M434.9,250l-2.699,9.901H256V114.3c14.099,0,26.7,8.399,40.201,21.899c3.6,3.9,9,5.4,14.399,3.9  c45.601-12.001,61.601,7.5,70.6,40.201c1.199,5.099,5.4,10.3,10.499,11.499C429.5,202,441.501,224.799,434.9,250z"/>
<path style="fill:#C4CAD9;" d="M511,286v107.5L496,422l-75,75l-28.5,15h-274L90,497l-75-75L0,393.5V286c0-24.901,20.099-45,45-45  h421C490.901,241,511,261.099,511,286z"/>
<path style="fill:#B8BFCC;" d="M512,286v107.5L497,422l-75,75l-28.5,15H256V241h211C491.901,241,512,261.099,512,286z"/>
<polygon style="fill:#C4CAD9;" points="451,241 451,301 421,331 90,331 60,301 60,241 "/>
<polygon style="fill:#B8BFCC;" points="452,241 452,301 422,331 256,331 256,241 "/>
<rect x="60" y="301" style="fill:#A66342;" width="391" height="211"/>
<rect x="256" y="301" style="fill:#995B3D;" width="196" height="211"/>
<path style="fill:#E6EEFF;" d="M15,392c-5.136,0-10.058,0.8-15,1.516V467c0,24.853,20.147,45,45,45h73.484  c0.716-4.942,1.516-9.864,1.516-15C120,439.109,72.891,392,15,392z"/>
<path style="fill:#DAE2F2;" d="M497,392c-57.891,0-105,47.109-105,105c0,5.136,0.8,10.058,1.516,15H467c24.853,0,45-20.147,45-45  v-73.484C507.058,392.8,502.136,392,497,392z"/>
<path style="fill:#E6EEFF;" d="M181,241v70.499c0,39.3,28.2,76,67.2,80.2c2.701,0.3,5.099,0.3,7.8,0.3c41.1,0,75-34.6,75-76v-75H181  V241z"/>
<path style="fill:#DAE2F2;" d="M331,241v75c0,41.4-33.9,76-75,76V241H331z"/>
<path style="fill:#7F838C;" d="M256,301c-8.401,0-15.3,6.899-15.3,15c0,8.399,6.899,15.3,15.3,15.3c8.101,0,15-6.901,15-15.3  C271,307.899,264.101,301,256,301z"/>
<path style="fill:#757982;" d="M271,316c0,8.399-6.899,15.3-15,15.3V301C264.101,301,271,307.899,271,316z"/>
<g>
</g>
<g>
</g>
<g>
</g>
<g>
</g>
<g>
</g>
<g>
</g>
<g>
</g>
<g>
</g>
<g>
</g>
<g>
</g>
<g>
</g>
<g>
</g>
<g>
</g>
<g>
</g>
<g>
</g>
</svg>
