<?xml version="1.0" encoding="iso-8859-1"?>
<!-- Generator: Adobe Illustrator 19.0.0, SVG Export Plug-In . SVG Version: 6.00 Build 0)  -->
<svg xmlns="http://www.w3.org/2000/svg" xmlns:xlink="http://www.w3.org/1999/xlink" version="1.1" id="Capa_1" x="0px" y="0px" viewBox="0 0 512.001 512.001" style="enable-background:new 0 0 512.001 512.001;" xml:space="preserve">
<path style="fill:#5C5F66;" d="M431.275,204.421l-111.49,111.491c-3.004,3.004-6.911,4.507-10.517,4.507  c-3.907,0-7.813-1.503-10.818-4.507c-5.71-5.71-5.71-15.326,0-21.036l111.789-111.789c2.104,4.507,5.108,8.714,8.714,12.32  C422.261,199.012,426.466,202.017,431.275,204.421z"/>
<path style="fill:#53565C;" d="M431.275,204.421l-111.49,111.491c-3.004,3.004-6.911,4.507-10.517,4.507  c-3.907,0-7.813-1.503-10.818-4.507l120.503-120.505C422.261,199.012,426.466,202.017,431.275,204.421z"/>
<path style="fill:#F9BC35;" d="M511.812,162.05c0.602,2.104-0.301,4.507-1.803,6.31l-76.931,76.631  c-4.207,4.206-10.218,5.71-15.928,3.905l-31.554-10.517c-2.405-0.901-4.207-2.104-5.71-3.606v-0.301  c-1.803-1.803-3.004-3.606-3.606-5.71l-10.517-31.554c-2.104-5.409-0.602-11.72,3.606-15.928l76.931-76.63  c1.503-1.803,3.907-2.403,6.312-1.803c2.102,0.301,3.905,2.104,4.807,4.207l12.32,37.564l37.564,12.62  C509.709,157.843,511.211,159.646,511.812,162.05z"/>
<path style="fill:#F39E31;" d="M511.812,162.05c0.602,2.104-0.301,4.507-1.803,6.31l-76.931,76.631  c-4.207,4.206-10.218,5.71-15.928,3.905l-31.554-10.517c-2.405-0.901-4.207-2.104-5.71-3.606v-0.301l89.853-89.853l37.564,12.62  C509.709,157.843,511.211,159.646,511.812,162.05z"/>
<path style="fill:#5C5F66;" d="M346.23,119.377l-111.489,111.49c-3.006,3.004-6.612,4.509-10.519,4.509  c-3.907,0-7.813-1.504-10.818-4.509c-5.71-5.71-5.71-15.326,0-21.036L325.194,98.041c2.104,4.807,5.11,9.015,8.716,12.62  S341.724,117.274,346.23,119.377z"/>
<path style="fill:#53565C;" d="M346.23,119.377l-111.489,111.49c-3.006,3.004-6.612,4.509-10.519,4.509  c-3.907,0-7.813-1.504-10.818-4.509L333.91,110.662C337.516,114.268,341.724,117.274,346.23,119.377z"/>
<path style="fill:#F9BC35;" d="M426.767,77.006c0.602,2.405,0,4.509-1.803,6.312l-76.63,76.63  c-4.207,4.207-10.517,5.71-16.227,3.907l-31.555-10.519c-2.102-0.6-3.905-2.104-5.708-3.606c-1.504-1.803-3.006-3.606-3.608-6.01  l-10.517-31.252c-1.803-5.71-0.301-12.019,3.907-16.227l76.63-76.63c1.503-1.803,3.907-2.405,6.312-1.803  c2.104,0.6,3.907,2.102,4.807,4.206l12.622,37.564l37.263,12.622C424.663,72.797,426.167,74.901,426.767,77.006z"/>
<path style="fill:#F39E31;" d="M426.767,77.006c0.602,2.405,0,4.509-1.803,6.312l-76.63,76.63  c-4.207,4.207-10.517,5.71-16.227,3.907l-31.555-10.519c-2.102-0.6-3.905-2.104-5.708-3.606l90.153-90.153l37.263,12.622  C424.663,72.797,426.167,74.901,426.767,77.006z"/>
<path style="fill:#5C5F66;" d="M31.978,387.197c-6.295,0-12.15-3.977-14.248-10.271L2.351,330.792  c-5.444-16.273-1.276-33.954,10.858-46.118l93.132-93.132c17.564-17.564,46.178-17.593,63.741,0l21.262,21.262  c5.869,5.869,5.869,15.378,0,21.247c-5.869,5.869-15.378,5.869-21.247,0l-21.262-21.262c-5.811-5.811-15.348-5.855-21.247,0.015  l-93.117,93.102c-4.05,4.05-5.429,9.949-3.624,15.363l15.378,46.147c2.626,7.879-1.629,16.39-9.494,19.002  C35.147,386.948,33.548,387.197,31.978,387.197z"/>
<path style="fill:#6D7179;" d="M141.883,475.784l-27.646,13.823c-17.431,8.716-38.166,5.409-51.989-8.413l-6.009-6.01  l-42.373-42.371c-17.729-17.731-17.729-46.28,0-63.71l10.519-10.818l21.335,9.015l94.662,94.662L141.883,475.784z"/>
<path style="fill:#64686F;" d="M141.883,475.784l-27.646,13.823c-17.431,8.716-38.166,5.409-51.989-8.413l-6.009-6.01l48.683-48.683  l35.46,35.46L141.883,475.784z"/>
<path style="fill:#6D7179;" d="M340.219,340.253l-32.155,31.854l-21.035-8.714L168.328,244.692l-9.015-21.337l32.155-31.854  c5.409-5.71,15.626-5.71,21.035,0l64.009,63.708l63.708,63.708C345.93,324.927,345.93,334.544,340.219,340.253z"/>
<path style="fill:#64686F;" d="M340.219,340.253l-32.155,31.854l-21.035-8.714l-59.502-59.502l48.983-48.683l63.708,63.708  C345.93,324.927,345.93,334.544,340.219,340.253z"/>
<path style="fill:#4DA6FF;" d="M308.065,372.108c-27.646,27.948-4.507,4.507-73.024,73.024  c-8.413,8.714-19.833,13.223-31.854,13.223H187.26c-5.71,0-11.419,1.503-16.829,3.606c-6.913,3.004-21.638,10.517-28.549,13.824  L98.91,432.812l-74.526-74.528c61.303-61.003,76.028-75.728,134.93-134.93l74.526,74.526L308.065,372.108z"/>
<path style="fill:#4596E6;" d="M308.065,372.108c-27.646,27.948-4.507,4.507-73.024,73.024  c-8.413,8.714-19.833,13.223-31.854,13.223H187.26c-5.71,0-11.419,1.503-16.829,3.606c-6.913,3.004-21.638,10.517-28.549,13.824  L98.91,432.812l134.93-134.932L308.065,372.108z"/>
<g>
</g>
<g>
</g>
<g>
</g>
<g>
</g>
<g>
</g>
<g>
</g>
<g>
</g>
<g>
</g>
<g>
</g>
<g>
</g>
<g>
</g>
<g>
</g>
<g>
</g>
<g>
</g>
<g>
</g>
</svg>
