<?xml version="1.0" encoding="iso-8859-1"?>
<!-- Generator: Adobe Illustrator 19.0.0, SVG Export Plug-In . SVG Version: 6.00 Build 0)  -->
<svg xmlns="http://www.w3.org/2000/svg" xmlns:xlink="http://www.w3.org/1999/xlink" version="1.1" id="Capa_1" x="0px" y="0px" viewBox="0 0 512 512" style="enable-background:new 0 0 512 512;" xml:space="preserve">
<path style="fill:#E55639;" d="M450.519,256.097c0,38.964-9.892,73.731-17.982,96.21l-46.457,46.757  c-29.972,9.892-76.729,21.881-130.081,21.881h-0.3c-53.052,0-99.809-11.689-129.781-21.581l-46.757-47.057  c-8.391-22.479-18.283-57.246-18.283-96.21c0-39.264,9.892-74.033,18.283-96.512l46.757-46.757  c29.972-9.892,76.729-21.579,129.781-21.579h0.3c53.352,0,100.108,11.688,130.081,21.579l46.457,47.057  C440.628,182.065,450.519,216.833,450.519,256.097z"/>
<path style="fill:#CF4529;" d="M450.519,256.097c0,38.964-9.892,73.731-17.982,96.21l-46.457,46.757  c-29.972,9.892-76.729,21.881-130.081,21.881V91.249c53.352,0,100.108,11.688,130.081,21.579l46.457,47.057  C440.628,182.065,450.519,216.833,450.519,256.097z"/>
<path style="fill:#FFBC33;" d="M456.019,511.986c-4.975,0-9.981-0.658-14.913-1.976c-3.834-1.024-7.229-3.571-9.22-7.011  l-8.81-15.25c-15.645-27.104-19.801-58.686-11.708-88.937c2.107-7.874,10.157-12.717,18.118-10.698l0.059,0.015  c30.47,8.151,55.745,27.543,71.404,54.661l8.81,15.25c1.946,3.366,2.503,7.361,1.552,11.123  c-4.039,15.147-13.523,27.485-26.767,35.139C475.732,509.38,465.941,511.986,456.019,511.986z"/>
<path style="fill:#FFDE33;" d="M55.995,512c-9.893,0-19.713-2.605-28.538-7.698c-13.245-7.654-22.728-19.992-26.679-34.773  c-1.024-3.834-0.527-8.05,1.464-11.488l8.81-15.25c15.66-27.119,40.934-46.51,71.155-54.603c8.035-2.181,16.289,2.591,18.411,10.581  c8.108,30.265,3.951,61.877-11.693,88.981L80.114,503c-2.034,3.513-5.4,6.058-9.351,7.039C65.889,511.356,60.927,512,55.995,512z"/>
<path style="fill:#FFBC33;" d="M425.9,124.328c-6.63,0-12.732-4.405-14.518-11.094c-8.107-30.265-3.951-61.877,11.693-88.981  l8.81-15.25c2.034-3.513,5.4-6.058,9.351-7.039c30.411-8.122,61.818,10.011,69.984,40.51c1.024,3.834,0.527,8.05-1.464,11.488  l-8.81,15.25c-15.66,27.119-40.934,46.51-71.155,54.603C428.491,124.167,427.188,124.328,425.9,124.328z"/>
<path style="fill:#FFDE33;" d="M86.128,124.343c-1.186,0-2.415-0.146-3.615-0.454l-0.059-0.015  c-30.47-8.151-55.744-27.543-71.404-54.662l-8.809-15.25C0.295,50.597-0.261,46.602,0.69,42.84  C8.958,11.976,40.409-6.288,70.893,1.995c3.834,1.024,7.229,3.571,9.22,7.011l8.81,15.25c15.645,27.104,19.801,58.686,11.708,88.937  C98.846,119.879,92.773,124.343,86.128,124.343z"/>
<path style="fill:#FFDE33;" d="M345.917,240.811H238.315c-6.293-17.385-22.777-29.972-42.26-29.972  c-24.878,0-44.958,20.08-44.958,44.958c0,24.876,20.08,44.958,44.958,44.958c19.483,0,35.967-12.589,42.26-29.972h32.671v14.986  c0,8.391,6.593,14.986,14.986,14.986s14.986-6.595,14.986-14.986v-14.986h29.972v14.986c0,8.391,6.593,14.986,14.986,14.986  s14.986-6.595,14.986-14.986v-29.972C360.903,247.404,354.31,240.811,345.917,240.811z M196.055,270.784  c-8.393,0-14.986-6.595-14.986-14.986c0-8.393,6.593-14.986,14.986-14.986s14.986,6.593,14.986,14.986  C211.041,264.189,204.449,270.784,196.055,270.784z"/>
<path style="fill:#FFBC33;" d="M360.903,255.797v29.972c0,8.391-6.593,14.986-14.986,14.986s-14.986-6.595-14.986-14.986v-14.986  h-29.972v14.986c0,8.391-6.593,14.986-14.986,14.986s-14.986-6.595-14.986-14.986v-14.986H256v-29.972h89.917  C354.31,240.811,360.903,247.404,360.903,255.797z"/>
<g>
	<path style="fill:#E7812E;" d="M370.942,398.181L370.942,398.181c-12.417-21.532-5.075-48.993,16.45-61.422   c21.44-12.323,49.027-5.005,61.422,16.435c12.396,21.484,5.005,49.027-16.464,61.437   C410.894,427.014,383.455,419.797,370.942,398.181z"/>
	<path style="fill:#E7812E;" d="M387.391,175.247c-21.525-12.43-28.866-39.89-16.45-61.422c6-10.39,15.703-17.826,27.294-20.928   c11.635-3.132,23.738-1.508,34.114,4.478c21.469,12.411,28.86,39.953,16.464,61.422   C436.339,180.371,408.804,187.596,387.391,175.247z M383.924,121.332h0.293H383.924z"/>
</g>
<g>
	<path style="fill:#F29A36;" d="M79.634,414.63c-21.455-12.411-28.845-39.953-16.45-61.422v-0.015   c12.411-21.44,40.026-28.757,61.422-16.435c21.525,12.43,28.866,39.89,16.45,61.422C128.731,419.524,101.364,427.145,79.634,414.63   z"/>
	<path style="fill:#F29A36;" d="M63.184,158.812v-0.015c-12.396-21.469-5.005-49.013,16.464-61.422   c21.822-12.552,49.149-4.782,61.408,16.479c12.38,21.407,5.141,48.926-16.45,61.393C103.124,187.637,75.609,180.275,63.184,158.812   z"/>
</g>
<g>
</g>
<g>
</g>
<g>
</g>
<g>
</g>
<g>
</g>
<g>
</g>
<g>
</g>
<g>
</g>
<g>
</g>
<g>
</g>
<g>
</g>
<g>
</g>
<g>
</g>
<g>
</g>
<g>
</g>
</svg>
