<?xml version="1.0" encoding="iso-8859-1"?>
<!-- Generator: Adobe Illustrator 19.0.0, SVG Export Plug-In . SVG Version: 6.00 Build 0)  -->
<svg xmlns="http://www.w3.org/2000/svg" xmlns:xlink="http://www.w3.org/1999/xlink" version="1.1" id="Capa_1" x="0px" y="0px" viewBox="0 0 512 512" style="enable-background:new 0 0 512 512;" xml:space="preserve">
<path style="fill:#E55639;" d="M512,178.166v213.8l-90,90v15c0,8.399-6.599,15-15,15H105c-8.401,0-15-6.601-15-15v-15l-90-90v-213.8  c0-24.6,12.299-47.701,32.401-61.5l26.1-28.2H453.5l27.301,28.799C500.3,131.366,512,153.866,512,178.166z"/>
<path style="fill:#CF4529;" d="M512,178.166v213.8l-90,90v15c0,8.399-6.599,15-15,15H256v-423.5h197.5l27.301,28.799  C500.3,131.366,512,153.866,512,178.166z"/>
<path style="fill:#FF9F19;" d="M271,134.966v377h-30v-377c0-8.401,6.599-15,15-15S271,126.565,271,134.966z"/>
<g>
	<path style="fill:#F28618;" d="M271,134.966v377h-15v-392C264.401,119.966,271,126.565,271,134.966z"/>
	<path style="fill:#F28618;" d="M437,149.966h-61c-24.814,0-45-20.186-45-45v-30c0-8.291,6.709-15,15-15h91   c24.814,0,45,20.186,45,45S461.814,149.966,437,149.966z"/>
</g>
<path style="fill:#FF9F19;" d="M136,149.966H75c-24.814,0-45-20.186-45-45s20.186-45,45-45h91c8.291,0,15,6.709,15,15v30  C181,129.78,160.814,149.966,136,149.966z"/>
<path style="fill:#FFBC33;" d="M497,481.966h-75v-90h90v75C512,475.25,505.284,481.966,497,481.966z"/>
<g>
	<path style="fill:#FFDE33;" d="M90,481.966H15c-8.284,0-15-6.716-15-15v-75h90V481.966z"/>
	<path style="fill:#FFDE33;" d="M341.201,0.865L256,29.065l-85.201-28.2C161.201-2.435,151,4.765,151,14.966v60   c0,5.099,2.401,9.6,6.599,12.599l90,60c2.401,1.8,5.402,2.401,8.401,2.401c2.999,0,6-0.601,8.401-2.401l90-60   c4.199-2.999,6.599-7.5,6.599-12.599v-60C361,4.465,350.799-2.435,341.201,0.865z"/>
</g>
<path style="fill:#FFBC33;" d="M361,14.966v60c0,5.099-2.401,9.6-6.599,12.599l-90,60c-2.401,1.8-5.402,2.401-8.401,2.401V29.065  l85.201-28.2C350.799-2.435,361,4.465,361,14.966z"/>
<path style="fill:#FF9F19;" d="M331,226.966c0,8.399-6.599,15-15,15H196c-8.401,0-15-6.601-15-15c0-8.401,6.599-15,15-15h120  C324.401,211.966,331,218.565,331,226.966z"/>
<path style="fill:#F28618;" d="M331,226.966c0,8.399-6.599,15-15,15h-60v-30h60C324.401,211.966,331,218.565,331,226.966z"/>
<path style="fill:#FF9F19;" d="M331,286.966c0,8.399-6.599,15-15,15H196c-8.401,0-15-6.601-15-15c0-8.401,6.599-15,15-15h120  C324.401,271.966,331,278.565,331,286.966z"/>
<path style="fill:#F28618;" d="M331,286.966c0,8.399-6.599,15-15,15h-60v-30h60C324.401,271.966,331,278.565,331,286.966z"/>
<path style="fill:#FF9F19;" d="M331,346.966c0,8.399-6.599,15-15,15H196c-8.401,0-15-6.601-15-15c0-8.401,6.599-15,15-15h120  C324.401,331.966,331,338.565,331,346.966z"/>
<path style="fill:#F28618;" d="M331,346.966c0,8.399-6.599,15-15,15h-60v-30h60C324.401,331.966,331,338.565,331,346.966z"/>
<path style="fill:#FF9F19;" d="M331,406.966c0,8.399-6.599,15-15,15H196c-8.401,0-15-6.601-15-15c0-8.401,6.599-15,15-15h120  C324.401,391.966,331,398.565,331,406.966z"/>
<path style="fill:#F28618;" d="M331,406.966c0,8.399-6.599,15-15,15h-60v-30h60C324.401,391.966,331,398.565,331,406.966z"/>
<g>
</g>
<g>
</g>
<g>
</g>
<g>
</g>
<g>
</g>
<g>
</g>
<g>
</g>
<g>
</g>
<g>
</g>
<g>
</g>
<g>
</g>
<g>
</g>
<g>
</g>
<g>
</g>
<g>
</g>
</svg>
