<?xml version="1.0" encoding="iso-8859-1"?>
<!-- Generator: Adobe Illustrator 19.0.0, SVG Export Plug-In . SVG Version: 6.00 Build 0)  -->
<svg xmlns="http://www.w3.org/2000/svg" xmlns:xlink="http://www.w3.org/1999/xlink" version="1.1" id="Capa_1" x="0px" y="0px" viewBox="0 0 512 512" style="enable-background:new 0 0 512 512;" xml:space="preserve">
<path style="fill:#5C5F66;" d="M271.004,15.004v119.998c0,8.399-6.599,15-15,15c-8.401,0-15-6.601-15-15V15.004  c0-8.401,6.599-15,15-15C264.404,0.004,271.004,6.603,271.004,15.004z"/>
<path style="fill:#53565C;" d="M271.004,15.004v119.998c0,8.399-6.599,15-15,15V0.004C264.404,0.004,271.004,6.603,271.004,15.004z"/>
<path style="fill:#5C5F66;" d="M271.004,256v119.998c0,8.399-6.599,15-15,15c-8.401,0-15-6.601-15-15V256c0-8.401,6.599-15,15-15  C264.404,241,271.004,247.599,271.004,256z"/>
<path style="fill:#53565C;" d="M271.004,256v119.998c0,8.399-6.599,15-15,15V241C264.404,241,271.004,247.599,271.004,256z"/>
<path style="fill:#5C5F66;" d="M60.007,75.003v30c0,8.399-6.599,15-15,15s-15-6.601-15-15v-30c0-8.401,6.599-15,15-15  S60.007,66.602,60.007,75.003z"/>
<path style="fill:#53565C;" d="M60.007,75.003v30c0,8.399-6.599,15-15,15V60.003C53.407,60.003,60.007,66.602,60.007,75.003z"/>
<path style="fill:#5C5F66;" d="M60.007,226v89.999c0,8.399-6.599,15-15,15s-15-6.601-15-15V226c0-8.401,6.599-15,15-15  S60.007,217.6,60.007,226z"/>
<path style="fill:#53565C;" d="M60.007,226v89.999c0,8.399-6.599,15-15,15V211.001C53.407,211.001,60.007,217.6,60.007,226z"/>
<path style="fill:#E6EEFF;" d="M88.507,98.401c-2.701-5.099-7.8-8.399-13.5-8.399H15.008c-5.099,0-9.901,2.699-12.599,7.2  c-3.001,4.501-3.001,9.901-0.901,14.399c16.8,33.599,16.8,74.199,0,107.798c-2.1,4.501-2.1,10.201,0.601,14.401  c2.999,4.499,7.8,7.2,12.9,7.2h59.999c5.7,0,10.8-3.3,13.5-8.401C109.206,190.899,109.206,140.101,88.507,98.401z"/>
<path style="fill:#DAE2F2;" d="M88.507,232.599c-2.701,5.101-7.8,8.401-13.5,8.401h-30V90.003h30c5.7,0,10.8,3.3,13.5,8.399  C109.206,140.101,109.206,190.899,88.507,232.599z"/>
<g>
	<path style="fill:#5C5F66;" d="M451.001,256v59.999c0,8.399-6.599,15-15,15c-8.401,0-15-6.601-15-15V256c0-8.401,6.599-15,15-15   C444.402,241,451.001,247.599,451.001,256z"/>
	<path style="fill:#5C5F66;" d="M451.001,105.002v30c0,8.399-6.599,15-15,15c-8.401,0-15-6.601-15-15v-30c0-8.401,6.599-15,15-15   C444.402,90.003,451.001,96.601,451.001,105.002z"/>
</g>
<g>
	<path style="fill:#53565C;" d="M451.001,105.002v30c0,8.399-6.599,15-15,15V90.003C444.401,90.003,451.001,96.601,451.001,105.002z   "/>
	<path style="fill:#53565C;" d="M451.001,256v59.999c0,8.399-6.599,15-15,15V241C444.401,241,451.001,247.599,451.001,256z"/>
</g>
<path style="fill:#E6EEFF;" d="M479.5,128.401c-2.701-5.099-7.8-8.399-13.5-8.399h-59.999c-5.099,0-9.901,2.699-12.599,7.2  c-3.001,4.501-3.001,9.901-0.901,14.399c16.8,33.599,16.8,74.199,0,107.798c-2.1,4.501-2.1,10.201,0.601,14.401  c2.999,4.499,7.8,7.2,12.9,7.2h59.999c5.7,0,10.8-3.3,13.5-8.401C500.2,220.898,500.2,170.1,479.5,128.401z"/>
<path style="fill:#DAE2F2;" d="M479.5,262.599c-2.701,5.101-7.8,8.401-13.5,8.401h-30V120.002h30c5.7,0,10.8,3.3,13.5,8.399  C500.2,170.1,500.2,220.898,479.5,262.599z"/>
<path style="fill:#995B3D;" d="M497,330.999H346.003c-8.291,0-15-6.709-15-15s6.709-15,15-15H497c8.291,0,15,6.709,15,15  S505.291,330.999,497,330.999z"/>
<path style="fill:#A66342;" d="M346.003,300.999c-8.401,0-15,6.599-15,15v30c0,8.399-6.599,15-15,15H192.705  c-6.601,0-11.7-5.101-11.7-11.7v-33.299c0-8.401-6.599-15-15-15H15.008c-5.099,0-9.901,2.699-12.9,7.2  c-2.701,4.2-2.701,9.901-0.601,14.399l30,59.999c2.701,5.101,7.8,8.401,13.5,8.401h18.3l21.601,86.799  c4.799,20.099,23.8,34.199,44.499,34.199h186.596c74.699,0,134.998-61.299,134.998-135.998v-74.999L346.003,300.999L346.003,300.999  z"/>
<path style="fill:#995B3D;" d="M451.001,300.999v74.999c0,74.699-60.299,135.998-134.998,135.998h-59.999V360.998h59.999  c8.401,0,15-6.601,15-15v-30c0-8.401,6.599-15,15-15L451.001,300.999L451.001,300.999z"/>
<path style="fill:#5C5F66;" d="M271.004,435.997c0,8.399-6.599,15-15,15c-8.401,0-15-6.601-15-15c0-8.401,6.599-15,15-15  C264.404,420.997,271.004,427.596,271.004,435.997z"/>
<path style="fill:#53565C;" d="M316.003,450.997L316.003,450.997c-8.284,0-15-6.716-15-15l0,0c0-8.284,6.716-15,15-15l0,0  c8.284,0,15,6.716,15,15l0,0C331.003,444.281,324.287,450.997,316.003,450.997z"/>
<path style="fill:#5C5F66;" d="M196.005,450.997L196.005,450.997c-8.284,0-15-6.716-15-15l0,0c0-8.284,6.716-15,15-15l0,0  c8.284,0,15,6.716,15,15l0,0C211.005,444.281,204.289,450.997,196.005,450.997z"/>
<path style="fill:#B8BFCC;" d="M346.003,271h-59.999c-5.2,0-10.034-2.695-12.759-7.119c-2.739-4.424-2.988-9.946-0.659-14.59  c16.699-33.368,16.699-74.197,0.015-107.551c-2.329-4.644-2.08-10.166,0.659-14.59c2.725-4.424,7.559-7.119,12.744-7.119  l59.984-0.029h0.015c5.684,0,10.869,3.208,13.418,8.291c20.889,41.776,20.903,92.64,0.015,134.387  C356.885,267.762,351.685,271,346.003,271z"/>
<path style="fill:#53565C;" d="M271.004,435.997c0,8.399-6.599,15-15,15v-30C264.404,420.997,271.004,427.596,271.004,435.997z"/>
<path style="fill:#E6EEFF;" d="M314.803,195.001c0,26.1-6.301,52.898-19.801,75.999h-68.999c-5.099,0-9.901-2.701-12.9-7.2  c-2.701-4.2-2.701-9.901-0.601-14.401c8.401-16.8,12.599-36.098,12.599-54.398s-4.199-36.6-12.599-53.4  c-2.1-4.499-2.1-10.199,0.601-14.399c2.999-4.501,7.8-7.2,12.9-7.2h68.999C308.503,143.101,314.803,168.901,314.803,195.001z"/>
<path style="fill:#DAE2F2;" d="M314.803,195.001c0,26.1-6.301,52.898-19.801,75.999h-38.999V120.002h38.999  C308.503,143.101,314.803,168.901,314.803,195.001z"/>
<path style="fill:#C4CAD9;" d="M234.93,120.002h-68.925c-5.2,0-10.034,2.695-12.759,7.119c-2.739,4.424-2.988,9.946-0.659,14.59  c8.351,16.688,12.524,34.989,12.524,53.29s-4.173,37.602-12.524,54.29c-2.329,4.644-2.08,10.166,0.659,14.59  c2.725,4.424,7.559,7.119,12.759,7.119h68.925c13.449-23.024,19.958-50.007,19.955-75.999  C254.888,169.009,248.379,143.025,234.93,120.002z"/>
<path style="fill:#E55639;" d="M256.004,0.004h-89.999c-8.401,0-15,6.899-15,15.3c0.3,41.399,33.899,74.699,74.999,74.699h44.999  V15.004C271.004,6.603,264.404,0.004,256.004,0.004z"/>
<path style="fill:#CF4529;" d="M271.004,15.004v74.999h-15V0.004C264.404,0.004,271.004,6.603,271.004,15.004z"/>
<g>
</g>
<g>
</g>
<g>
</g>
<g>
</g>
<g>
</g>
<g>
</g>
<g>
</g>
<g>
</g>
<g>
</g>
<g>
</g>
<g>
</g>
<g>
</g>
<g>
</g>
<g>
</g>
<g>
</g>
</svg>
