<?xml version="1.0" encoding="iso-8859-1"?>
<!-- Generator: Adobe Illustrator 19.0.0, SVG Export Plug-In . SVG Version: 6.00 Build 0)  -->
<svg xmlns="http://www.w3.org/2000/svg" xmlns:xlink="http://www.w3.org/1999/xlink" version="1.1" id="Capa_1" x="0px" y="0px" viewBox="0 0 512 512" style="enable-background:new 0 0 512 512;" xml:space="preserve">
<path style="fill:#B8BFCC;" d="M299.339,235.618l-63.559,63.559L13.327,76.722c-17.552-17.552-17.552-46.007,0-63.559l0,0  c17.552-17.552,46.007-17.552,63.559,0L299.339,235.618z"/>
<path style="fill:#C4CAD9;" d="M299.339,235.618L76.886,13.164c-17.552-17.552-46.007-17.552-63.559,0L267.56,267.396  L299.339,235.618z"/>
<g>
	
		<rect x="148.464" y="178.262" transform="matrix(-0.7071 0.7071 -0.7071 -0.7071 466.8087 193.1276)" style="fill:#979CA7;" width="89.884" height="29.961"/>
	
		<rect x="106.091" y="135.894" transform="matrix(-0.7071 0.7071 -0.7071 -0.7071 364.5139 150.7621)" style="fill:#979CA7;" width="89.884" height="29.961"/>
	
		<rect x="63.721" y="93.526" transform="matrix(-0.7071 0.7071 -0.7071 -0.7071 262.2249 108.3957)" style="fill:#979CA7;" width="89.884" height="29.961"/>
	
		<rect x="21.347" y="51.147" transform="matrix(-0.7071 0.7071 -0.7071 -0.7071 159.9226 66.0135)" style="fill:#979CA7;" width="89.884" height="29.961"/>
</g>
<rect x="349.733" y="334.59" transform="matrix(-0.7071 0.7071 -0.7071 -0.7071 952.7157 394.3975)" style="fill:#5C5F66;" width="89.884" height="119.846"/>
<rect x="388.103" y="318.696" transform="matrix(0.7071 -0.7071 0.7071 0.7071 -147.4697 401.2149)" style="fill:#53565C;" width="44.942" height="119.846"/>
<g>
	
		<rect x="186.827" y="162.383" transform="matrix(0.7071 -0.7071 0.7071 0.7071 -64.113 199.945)" style="fill:#A1A7B3;" width="44.942" height="29.961"/>
	
		<rect x="144.459" y="120" transform="matrix(0.7071 -0.7071 0.7071 0.7071 -46.5532 157.5724)" style="fill:#A1A7B3;" width="44.942" height="29.961"/>
	
		<rect x="102.088" y="77.624" transform="matrix(0.7071 -0.7071 0.7071 0.7071 -28.9992 115.1998)" style="fill:#A1A7B3;" width="44.942" height="29.961"/>
	
		<rect x="59.712" y="35.262" transform="matrix(0.7071 -0.7071 0.7071 0.7071 -11.4559 72.8275)" style="fill:#A1A7B3;" width="44.942" height="29.961"/>
</g>
<path style="fill:#757982;" d="M416.181,331.263l-84.75,84.75c-6.667,6.667-17.805,5.595-23.057-2.282l-93.46-135.422l63.559-63.559  L413.9,308.205C421.749,313.44,422.852,324.591,416.181,331.263z"/>
<path style="fill:#7F838C;" d="M246.692,246.529l127.109,127.11l42.378-42.378c6.672-6.672,5.57-17.823-2.281-23.055L278.471,214.75  L246.692,246.529z"/>
<path style="fill:#757982;" d="M477.303,386.039l-12.502,0.212c-3.812,0-7.838,1.483-10.591,4.238l-63.559,63.559  c-2.754,2.754-4.238,6.779-4.238,10.591l-0.212,12.502c0.212,24.786,30.932,34.32,55.72,34.534l24.787-0.214  c12.5,0.214,23.729-5.085,31.779-13.135c8.051-8.051,13.349-19.278,13.135-31.779l0.214-24.787  C511.623,416.971,502.089,386.25,477.303,386.039z"/>
<path style="fill:#7F838C;" d="M511.836,441.758l-0.214,24.787c0.214,12.5-5.085,23.729-13.135,31.779l-76.058-76.058l31.779-31.779  c2.754-2.754,6.779-4.238,10.591-4.238l12.502-0.212C502.089,386.25,511.623,416.971,511.836,441.758z"/>
<path style="fill:#C4CAD9;" d="M276.219,299.503l-63.559-63.559L435.114,13.491c17.552-17.552,46.007-17.552,63.559,0l0,0  c17.551,17.552,17.551,46.007,0,63.559L276.219,299.503z"/>
<path style="fill:#B8BFCC;" d="M276.219,299.503L498.673,77.049c17.552-17.552,17.552-46.007,0-63.559L244.44,267.724  L276.219,299.503z"/>
<g>
	
		<rect x="273.645" y="178.587" transform="matrix(-0.7071 -0.7071 0.7071 -0.7071 406.9892 555.7162)" style="fill:#A1A7B3;" width="89.884" height="29.961"/>
	
		<rect x="316.025" y="136.221" transform="matrix(-0.7071 -0.7071 0.7071 -0.7071 509.294 513.3606)" style="fill:#A1A7B3;" width="89.884" height="29.961"/>
	
		<rect x="358.392" y="93.846" transform="matrix(-0.7071 -0.7071 0.7071 -0.7071 611.5818 470.9781)" style="fill:#A1A7B3;" width="89.884" height="29.961"/>
	
		<rect x="400.762" y="51.47" transform="matrix(-0.7071 -0.7071 0.7071 -0.7071 713.8766 428.5984)" style="fill:#A1A7B3;" width="89.884" height="29.961"/>
</g>
<rect x="72.379" y="334.916" transform="matrix(-0.7071 -0.7071 0.7071 -0.7071 -78.9135 756.9897)" style="fill:#5C5F66;" width="89.884" height="119.846"/>
<rect x="110.74" y="350.814" transform="matrix(0.7071 0.7071 -0.7071 0.7071 329.4518 26.1074)" style="fill:#53565C;" width="44.942" height="119.846"/>
<g>
	
		<rect x="312.006" y="194.487" transform="matrix(0.7071 0.7071 -0.7071 0.7071 246.0821 -175.1596)" style="fill:#979CA7;" width="44.942" height="29.961"/>
	
		<rect x="354.385" y="152.118" transform="matrix(0.7071 0.7071 -0.7071 0.7071 228.5352 -217.5351)" style="fill:#979CA7;" width="44.942" height="29.961"/>
	
		<rect x="396.763" y="109.735" transform="matrix(0.7071 0.7071 -0.7071 0.7071 210.9783 -259.9148)" style="fill:#979CA7;" width="44.942" height="29.961"/>
	
		<rect x="439.124" y="67.37" transform="matrix(0.7071 0.7071 -0.7071 0.7071 193.4285 -302.2774)" style="fill:#979CA7;" width="44.942" height="29.961"/>
</g>
<path style="fill:#7F838C;" d="M180.574,416.345l-84.75-84.75c-6.667-6.667-5.595-17.805,2.282-23.056l135.422-93.46l63.559,63.559  l-93.455,135.427C198.397,421.913,187.246,423.016,180.574,416.345z"/>
<path style="fill:#757982;" d="M265.308,246.857L138.198,373.966l42.378,42.378c6.672,6.672,17.823,5.57,23.055-2.281  l93.456-135.428L265.308,246.857z"/>
<path style="fill:#7F838C;" d="M125.798,477.467l-0.212-12.502c0-3.812-1.483-7.838-4.238-10.591L57.79,390.814  c-2.754-2.754-6.779-4.238-10.591-4.238l-12.502-0.212c-24.785,0.213-34.32,30.932-34.533,55.72l0.214,24.787  c-0.214,12.5,5.084,23.729,13.135,31.779c8.051,8.051,19.278,13.349,31.779,13.135L70.079,512  C94.866,511.787,125.586,502.253,125.798,477.467z"/>
<path style="fill:#757982;" d="M70.078,512l-24.787-0.214c-12.5,0.214-23.729-5.085-31.779-13.135l76.058-76.058l31.779,31.779  c2.754,2.754,4.238,6.779,4.238,10.591l0.212,12.502C125.586,502.253,94.866,511.787,70.078,512z"/>
<g>
</g>
<g>
</g>
<g>
</g>
<g>
</g>
<g>
</g>
<g>
</g>
<g>
</g>
<g>
</g>
<g>
</g>
<g>
</g>
<g>
</g>
<g>
</g>
<g>
</g>
<g>
</g>
<g>
</g>
</svg>
