<?xml version="1.0" encoding="iso-8859-1"?>
<!-- Generator: Adobe Illustrator 19.0.0, SVG Export Plug-In . SVG Version: 6.00 Build 0)  -->
<svg xmlns="http://www.w3.org/2000/svg" xmlns:xlink="http://www.w3.org/1999/xlink" version="1.1" id="Capa_1" x="0px" y="0px" viewBox="0 0 511.999 511.999" style="enable-background:new 0 0 511.999 511.999;" xml:space="preserve">
<path style="fill:#FFDFB3;" d="M276.76,353.046L170.247,489.949L83.291,428.87l-5.717-4.212l-60.177-78.832L157.61,236.604  c6.32-4.813,15.948-3.912,21.062,2.709c0.603,0.902,0.904,1.805,1.203,2.707l0.904-0.902l88.46,88.46  c1.805,0.601,3.31,1.203,4.813,2.406C280.673,337.1,281.875,346.73,276.76,353.046z"/>
<path style="fill:#FFCF99;" d="M276.76,353.046L170.247,489.949L83.291,428.87l142.62-142.62l43.328,43.328  c1.805,0.601,3.31,1.203,4.813,2.406C280.673,337.1,281.875,346.73,276.76,353.046z"/>
<path style="fill:#FFDFB3;" d="M493.699,167.099c-0.299,0.301-0.299,0.301-0.299,0.603L358.601,272.41l-58.672-60.177  l-58.975-60.177L344.46,18.763l74.619,74.32L493.699,167.099z"/>
<path style="fill:#FFCF99;" d="M493.699,167.099c-0.299,0.301-0.299,0.301-0.299,0.603L358.601,272.41l-58.672-60.177  l119.15-119.151L493.699,167.099z"/>
<g>
	<path style="fill:#FFC380;" d="M494.602,166.499l-41.522-5.416l-79.434-22.566l-16.549-4.815   C324.3,93.683,318.585,44.639,345.664,17.56C375.452-12.228,431.717-2.9,473.24,38.922   C515.062,80.444,524.389,136.71,494.602,166.499z"/>
	<path style="fill:#FFC380;" d="M163.326,497.17c-30.689,26.478-84.848,16.249-124.566-23.769   c-41.823-41.522-51.151-97.788-21.364-127.576c27.081-27.081,76.125-21.364,116.142,11.434l-6.919,28.283l-6.919,27.982   L163.326,497.17z"/>
</g>
<g>
	<path style="fill:#F2AE61;" d="M163.326,497.17c-30.689,26.478-84.848,16.249-124.566-23.769l87.858-87.858l-6.919,27.982   L163.326,497.17z"/>
	<path style="fill:#F2AE61;" d="M494.602,166.499l-41.522-5.416l-79.434-22.566l99.593-99.595   C515.062,80.444,524.389,136.71,494.602,166.499z"/>
</g>
<g>
	<path style="fill:#FFBC33;" d="M383.656,405.092l-31.91-31.91c-5.876-5.876-5.876-15.397,0-21.274   c5.876-5.876,15.397-5.876,21.274,0l31.91,31.91c5.876,5.876,5.876,15.397,0,21.274   C399.052,410.969,389.532,410.969,383.656,405.092z"/>
	<path style="fill:#FFBC33;" d="M436.839,324.363h-42.547c-8.315,0-15.044-6.729-15.044-15.044s6.729-15.044,15.044-15.044h42.547   c8.315,0,15.044,6.729,15.044,15.044S445.155,324.363,436.839,324.363z"/>
	<path style="fill:#FFBC33;" d="M309.135,452.047c-8.315,0-15.044-6.729-15.044-15.044v-42.547c0-8.315,6.729-15.044,15.044-15.044   s15.044,6.729,15.044,15.044v42.547C324.179,445.318,317.45,452.047,309.135,452.047z"/>
</g>
<g>
	<path style="fill:#FFDE33;" d="M138.981,160.416l-31.91-31.91c-5.876-5.876-5.876-15.397,0-21.274   c5.876-5.876,15.397-5.876,21.274,0l31.91,31.91c5.876,5.876,5.876,15.397,0,21.274   C154.377,166.294,144.857,166.294,138.981,160.416z"/>
	<path style="fill:#FFDE33;" d="M202.822,132.914c-8.315,0-15.044-6.729-15.044-15.044V75.323c0-8.315,6.729-15.044,15.044-15.044   s15.044,6.729,15.044,15.044v42.547C217.866,126.186,211.137,132.914,202.822,132.914z"/>
	<path style="fill:#FFDE33;" d="M117.707,218.05H75.16c-8.315,0-15.044-6.729-15.044-15.044s6.729-15.044,15.044-15.044h42.547   c8.315,0,15.044,6.729,15.044,15.044S126.023,218.05,117.707,218.05z"/>
</g>
<g>
	<path style="fill:#FFCF99;" d="M493.699,167.099c-30.089,28.886-80.335,16.55-115.238-12.034c-5.717-4.514-8.727-7.221-11.434-9.93   c-2.709-2.709-5.416-5.717-9.93-11.434l52.354-52.354c6.32-6.32,16.249-5.416,21.062,0.301c2.408,2.106,3.911,4.813,4.514,8.123   c0,0,3.31,20.462,17.148,34c13.54,13.842,34,17.15,34,17.15C498.815,143.029,503.628,158.675,493.699,167.099z"/>
	<path style="fill:#FFCF99;" d="M168.142,492.658c-2.709,3.008-6.018,6.618-12.636,6.618c-7.223,0-13.842-6.018-14.745-12.938   c0-0.603-3.611-20.46-17.148-34c-13.54-13.84-33.699-17.15-34-17.15c-3.311-0.601-6.018-2.106-8.125-4.512   c-5.717-4.815-6.618-14.743-0.301-21.062l52.354-52.354c5.717,4.512,8.727,7.221,11.434,9.93c2.709,2.707,5.416,5.715,9.93,11.432   C182.884,412.622,195.822,461.968,168.142,492.658z"/>
</g>
<g>
	<path style="fill:#FFC380;" d="M168.142,492.658c-2.709,3.008-6.018,6.618-12.636,6.618c-7.223,0-13.842-6.018-14.745-12.938   c0-0.603-3.611-20.46-17.148-34c-13.54-13.84-33.699-17.15-34-17.15c-3.311-0.601-6.018-2.106-8.125-4.512l63.487-63.487   c2.709,2.707,5.416,5.715,9.93,11.432C182.884,412.622,195.822,461.968,168.142,492.658z"/>
	<path style="fill:#FFC380;" d="M493.699,167.099c-30.089,28.886-80.335,16.55-115.238-12.034c-5.717-4.514-8.727-7.221-11.434-9.93   l63.487-63.487c2.408,2.106,3.911,4.813,4.514,8.123c0,0,3.31,20.462,17.148,34c13.54,13.842,34,17.15,34,17.15   C498.815,143.029,503.628,158.675,493.699,167.099z"/>
</g>
<path style="fill:#EC7838;" d="M347.169,236.002c-4.514-3.31-6.018-9.327-3.911-14.743v-0.301  c6.017-15.343,3.008-31.894-8.125-43.928c-0.301-0.904-0.904-1.504-1.504-2.106c-12.337-12.036-29.788-15.948-46.337-9.628  c-5.416,2.106-11.133,0.603-15.044-4.212c-10.832-13.539-27.982-18.956-44.53-14.441c-16.85,4.514-28.886,17.753-31.593,35.203  c-0.904,5.717-5.114,9.93-11.133,10.833c-17.15,2.707-30.691,14.743-34.904,31.593c-4.512,16.549,0.904,33.699,14.743,44.832  c4.514,3.611,6.018,9.628,3.912,15.044c-6.318,16.247-2.707,34,9.628,46.034c0.603,0.603,1.205,1.205,2.106,1.505  c12.036,11.133,28.584,14.141,44.231,8.123c5.416-2.106,11.133-0.601,15.044,4.212c11.133,13.842,28.283,18.956,44.53,14.743  c16.85-4.512,28.886-18.052,31.593-35.504c0.904-5.717,5.114-9.93,11.133-10.832c17.15-2.709,30.691-14.743,34.904-31.293  C366.424,264.285,361.008,247.137,347.169,236.002z"/>
<path style="fill:#DB632C;" d="M361.912,281.135c-4.212,16.55-17.753,28.584-34.904,31.293c-6.018,0.902-10.229,5.114-11.133,10.832  c-2.707,17.452-14.743,30.992-31.593,35.505c-16.247,4.212-33.398-0.902-44.53-14.743c-3.911-4.813-9.628-6.32-15.044-4.212  c-15.647,6.018-32.195,3.01-44.231-8.123L335.132,177.03c11.133,12.034,14.141,28.584,8.125,43.928v0.301  c-2.106,5.416-0.603,11.434,3.911,14.743C361.008,247.137,366.424,264.285,361.912,281.135z"/>
<path style="fill:#E55639;" d="M287.893,266.693c6.018,6.018,6.018,15.647,0,21.364c-5.717,6.018-15.345,6.018-21.364,0  l-10.53-10.532l-10.53,10.532c-6.018,6.018-15.647,6.018-21.364,0c-6.018-5.717-6.018-15.345,0-21.364l10.53-10.53l-10.53-10.532  c-6.018-6.017-6.018-15.645,0-21.362c5.717-6.018,15.345-6.018,21.364,0l10.53,10.53l10.53-10.53c6.018-6.018,15.647-6.018,21.364,0  c6.018,5.717,6.018,15.345,0,21.362l-10.53,10.532L287.893,266.693z"/>
<path style="fill:#CF4529;" d="M287.893,266.693c6.018,6.018,6.018,15.647,0,21.364c-5.717,6.018-15.345,6.018-21.364,0  l-10.53-10.532l-10.53,10.532c-6.018,6.018-15.647,6.018-21.364,0l63.788-63.788c6.018,5.717,6.018,15.345,0,21.362l-10.53,10.532  L287.893,266.693z"/>
<g>
</g>
<g>
</g>
<g>
</g>
<g>
</g>
<g>
</g>
<g>
</g>
<g>
</g>
<g>
</g>
<g>
</g>
<g>
</g>
<g>
</g>
<g>
</g>
<g>
</g>
<g>
</g>
<g>
</g>
</svg>
