<?xml version="1.0" encoding="iso-8859-1"?>
<!-- Generator: Adobe Illustrator 19.0.0, SVG Export Plug-In . SVG Version: 6.00 Build 0)  -->
<svg xmlns="http://www.w3.org/2000/svg" xmlns:xlink="http://www.w3.org/1999/xlink" version="1.1" id="Capa_1" x="0px" y="0px" viewBox="0 0 512 512" style="enable-background:new 0 0 512 512;" xml:space="preserve">
<rect x="120" y="210" style="fill:#A1A7B3;" width="272" height="151"/>
<rect x="256" y="210" style="fill:#979CA7;" width="136" height="151"/>
<path style="fill:#DAE2F2;" d="M497,512h-90c-8.291,0-15-6.709-15-15V285c0-8.291,6.709-15,15-15h15v-45c0-8.291,6.709-15,15-15h60  c8.291,0,15,6.709,15,15v272C512,505.291,505.291,512,497,512z"/>
<path style="fill:#E6EEFF;" d="M105,512H15c-8.291,0-15-6.709-15-15V225c0-8.291,6.709-15,15-15h60c8.291,0,15,6.709,15,15v45h15  c8.291,0,15,6.709,15,15v212C120,505.291,113.291,512,105,512z"/>
<path style="fill:#C4CAD9;" d="M422,512H90V270h76c8.284,0,15,6.716,15,15v45h30v-45c0-8.284,6.716-15,15-15h60  c8.284,0,15,6.716,15,15v45h30v-45c0-8.284,6.716-15,15-15h76V512z"/>
<path style="fill:#B8BFCC;" d="M331,285v45h-30v-45c0-8.284-6.716-15-15-15h-30v242h166V270h-76C337.716,270,331,276.716,331,285z"/>
<path style="fill:#A1A7B3;" d="M256,150c-8.291,0-15-6.709-15-15V15c0-8.291,6.709-15,15-15c8.291,0,15,6.709,15,15v120  C271,143.291,264.291,150,256,150z"/>
<path style="fill:#5C5F66;" d="M331,512H181v-45c0-41.421,33.579-75,75-75l0,0c41.421,0,75,33.579,75,75V512z"/>
<path style="fill:#53565C;" d="M331,512v-45c0-41.422-33.578-75-75-75v120H331z"/>
<path style="fill:#979CA7;" d="M271,135V15c0-8.291-6.709-15-15-15v150C264.291,150,271,143.291,271,135z"/>
<path style="fill:#C4CAD9;" d="M417.607,205.604C420.42,202.791,422,198.977,422,195v-60c0-8.284-6.716-15-15-15h-61  c-8.291,0-15,6.709-15,15v15h-30v-15c0-8.291-6.709-15-15-15h-60c-8.291,0-15,6.709-15,15v15h-30v-15c0-8.291-6.709-15-15-15h-61  c-8.284,0-15,6.716-15,15v59.996c0,3.979,1.58,7.795,4.395,10.609L120,240h272L417.607,205.604z"/>
<path style="fill:#B8BFCC;" d="M407,120h-61c-8.291,0-15,6.709-15,15v15h-30v-15c0-8.291-6.709-15-15-15h-30v120h136l25.607-34.396  C420.42,202.791,422,198.977,422,195v-60C422,126.716,415.284,120,407,120z"/>
<path style="fill:#4DA6FF;" d="M286,90h-45V15c0-8.284,6.716-15,15-15h90c8.384,0,15.039,6.988,14.998,15.372  C360.798,56.554,327.228,90,286,90z"/>
<path style="fill:#4596E6;" d="M286,90c41.228,0,74.799-33.446,74.998-74.628C361.038,6.987,354.384,0,346,0h-90v90H286z"/>
<g>
</g>
<g>
</g>
<g>
</g>
<g>
</g>
<g>
</g>
<g>
</g>
<g>
</g>
<g>
</g>
<g>
</g>
<g>
</g>
<g>
</g>
<g>
</g>
<g>
</g>
<g>
</g>
<g>
</g>
</svg>
