<?xml version="1.0" encoding="iso-8859-1"?>
<!-- Generator: Adobe Illustrator 19.0.0, SVG Export Plug-In . SVG Version: 6.00 Build 0)  -->
<svg xmlns="http://www.w3.org/2000/svg" xmlns:xlink="http://www.w3.org/1999/xlink" version="1.1" id="Capa_1" x="0px" y="0px" viewBox="0 0 512 512" style="enable-background:new 0 0 512 512;" xml:space="preserve">
<g>
	<path style="fill:#F29A36;" d="M165.999,60c-8.291,0-15-6.709-15-15V15c0-8.291,6.709-15,15-15s15,6.709,15,15v30   C180.999,53.291,174.29,60,165.999,60z"/>
	<path style="fill:#F29A36;" d="M270.999,15v30c0,8.401-6.599,15-15,15s-15-6.599-15-15V15c0-8.401,6.599-15,15-15   S270.999,6.599,270.999,15z"/>
</g>
<g>
	<path style="fill:#E7812E;" d="M345.999,60c-8.291,0-15-6.709-15-15V15c0-8.291,6.709-15,15-15s15,6.709,15,15v30   C360.999,53.291,354.29,60,345.999,60z"/>
	<path style="fill:#E7812E;" d="M270.999,15v30c0,8.401-6.599,15-15,15V0C264.4,0,270.999,6.599,270.999,15z"/>
</g>
<path style="fill:#F9BC35;" d="M360.999,20.7V120l-15,31h-180l-15-31V20.7L223,56.7l22.5-22.2c2.698-3,6.598-4.5,10.499-4.5  c3.9,0,7.8,1.5,10.499,4.501l22.5,22.2L360.999,20.7z"/>
<path style="fill:#F39E31;" d="M360.999,20.7V120l-15,31h-90V30c3.9,0,7.8,1.5,10.499,4.501l22.5,22.2L360.999,20.7z"/>
<polygon style="fill:#FFCF99;" points="365.798,359.299 313.598,422 186.999,422 146.199,359.299 165.698,300.5 346.299,300.5 "/>
<polygon style="fill:#FFC380;" points="365.798,359.299 313.598,422 255.999,422 255.999,300.5 346.299,300.5 "/>
<path style="fill:#E55639;" d="M454.298,512H57.699c-30.901,0-52.5-30-42.9-59.099l6.899-20.7c2.701-7.8,11.1-12.001,18.9-9.3h430.8  c7.8-2.701,16.199,1.5,18.9,9.3l6.899,20.7C506.798,482,485.199,512,454.298,512z"/>
<path style="fill:#CF4529;" d="M454.298,512h-198.3v-89.099h215.4c7.8-2.701,16.199,1.5,18.9,9.3l6.899,20.7  C506.798,482,485.199,512,454.298,512z"/>
<path style="fill:#FFDFB3;" d="M360.999,182v75c0,28.801-11.7,54.901-30.601,73.801L276.699,302h-41.4L181.6,330.801  c-18.9-18.9-30.601-45-30.601-73.801v-75l15-30h180L360.999,182z"/>
<path style="fill:#FFCF99;" d="M360.999,182v75c0,28.801-11.7,54.901-30.601,73.801L276.699,302h-20.7V152h90L360.999,182z"/>
<path style="fill:#6D7179;" d="M330.398,330.801c-7.2,7.5-15.599,13.2-24.6,17.999c-15,8.101-31.8,13.2-49.799,13.2  s-34.799-5.099-49.799-13.2c-9.001-4.799-17.401-10.499-24.6-17.999l30.899-50.4c2.701-5.101,7.8-8.401,13.5-8.401h60  c5.7,0,10.8,3.3,13.5,8.401L330.398,330.801z"/>
<path style="fill:#64686F;" d="M330.398,330.801c-7.2,7.5-15.599,13.2-24.6,17.999c-15,8.101-31.8,13.2-49.799,13.2v-90h30  c5.7,0,10.8,3.3,13.5,8.401L330.398,330.801z"/>
<path style="fill:#FFDE33;" d="M150.999,120v62h210v-62H150.999z"/>
<rect x="256" y="120" style="fill:#FFBC33;" width="105" height="62"/>
<path style="fill:#E6EEFF;" d="M154.69,341.741c-10.21-7.104-23.291-8.994-35.142-5.068L50.92,359.554  c-10.034,3.34-18.164,10.386-22.896,19.849l-14.59,29.194C3.48,428.475,17.949,452,40.271,452h185.728l17.358-48.516L154.69,341.741  z"/>
<path style="fill:#DAE2F2;" d="M498.562,408.582l-14.59-29.18c-4.731-9.463-12.861-16.509-22.896-19.849l-68.643-22.896  c-11.836-3.955-24.932-2.021-35.127,5.083l-88.667,61.743L285.999,452h185.728C494.021,452,508.532,428.522,498.562,408.582z"/>
<path style="fill:#FFDE33;" d="M255.999,392c-24.901,0-45,20.099-45,45s20.099,45,45,45s45-20.099,45-45S280.899,392,255.999,392z"/>
<path style="fill:#FFBC33;" d="M300.999,437c0,24.901-20.099,45-45,45v-90C280.899,392,300.999,412.099,300.999,437z"/>
<path style="fill:#E55639;" d="M255.999,452c-8.271,0-15-6.729-15-15s6.729-15,15-15s15,6.729,15,15S264.27,452,255.999,452z"/>
<path style="fill:#CF4529;" d="M270.999,437c0-8.271-6.729-15-15-15v30C264.27,452,270.999,445.271,270.999,437z"/>
<g>
</g>
<g>
</g>
<g>
</g>
<g>
</g>
<g>
</g>
<g>
</g>
<g>
</g>
<g>
</g>
<g>
</g>
<g>
</g>
<g>
</g>
<g>
</g>
<g>
</g>
<g>
</g>
<g>
</g>
</svg>
