<?xml version="1.0" encoding="iso-8859-1"?>
<!-- Generator: Adobe Illustrator 19.0.0, SVG Export Plug-In . SVG Version: 6.00 Build 0)  -->
<svg xmlns="http://www.w3.org/2000/svg" xmlns:xlink="http://www.w3.org/1999/xlink" version="1.1" id="Capa_1" x="0px" y="0px" viewBox="0 0 512.002 512.002" style="enable-background:new 0 0 512.002 512.002;" xml:space="preserve">
<path style="fill:#C4CAD9;" d="M507.573,4.491c-4.209-4.21-10.223-5.415-15.636-3.609l-63.752,21.049  c-4.512,1.505-7.819,5.113-9.322,9.623l-21.352,63.752c-1.804,5.413-0.301,11.427,3.609,15.337h0.301  c3.909,4.21,9.623,5.413,15.036,3.609l63.752-21.05c4.512-1.504,8.12-5.111,9.623-9.621l21.35-63.754  C512.986,14.412,511.483,8.4,507.573,4.491z"/>
<path style="fill:#B8BFCC;" d="M511.182,19.825l-21.35,63.754c-1.504,4.51-5.111,8.118-9.623,9.621l-63.752,21.05  c-5.413,1.804-11.127,0.602-15.036-3.609L507.573,4.491C511.483,8.4,512.986,14.412,511.182,19.825z"/>
<path style="fill:#A1A7B3;" d="M424.577,91.697l-2.105-2.105l-2.407-2.405c-15.939-15.939-43.303-15.939-59.243,0l-23.455,23.455  c-3.006,3.008-4.512,6.617-4.512,10.826c0,3.909,1.505,7.819,4.512,10.526l21.352,21.35l21.049,21.05  c3.008,3.008,6.617,4.512,10.827,4.512c3.909,0,7.817-1.504,10.524-4.512l23.457-23.455c8.118-7.819,12.328-18.345,12.328-29.471  S432.696,99.817,424.577,91.697z"/>
<path style="fill:#979CA7;" d="M436.906,121.468c0,11.127-4.21,21.653-12.328,29.471l-23.457,23.455  c-2.707,3.008-6.615,4.512-10.524,4.512c-4.21,0-7.819-1.504-10.827-4.512l-21.049-21.05l63.752-63.752l2.105,2.105  C432.696,99.817,436.906,110.341,436.906,121.468z"/>
<path style="fill:#5C5F66;" d="M185.003,390.512l-74.276,74.577c-6.014,5.714-15.337,5.714-21.352,0l-21.05-21.35l-21.35-21.352  c-6.014-5.714-6.014-15.337,0-21.05l74.276-74.577l21.352,8.72l33.68,33.68L185.003,390.512z"/>
<path style="fill:#53565C;" d="M185.003,390.512l-74.276,74.577c-6.014,5.714-15.337,5.714-21.352,0l-21.05-21.35l91.419-91.119  l16.54,16.54L185.003,390.512z"/>
<path style="fill:#A66342;" d="M316.016,259.499L185.003,390.512l-63.752-63.752l131.013-131.013c6.014-5.714,15.337-5.714,21.352,0  l21.35,21.35l21.05,21.352C322.031,244.162,322.031,253.785,316.016,259.499z"/>
<path style="fill:#995B3D;" d="M316.016,259.499L185.003,390.512l-31.575-31.575l141.538-141.84l21.05,21.352  C322.031,244.162,322.031,253.785,316.016,259.499z"/>
<path style="fill:#7F838C;" d="M110.727,443.74l-21.352-21.352l-21.35-21.05c-2.707-3.006-6.617-4.51-10.526-4.51H45.17  c-24.961,0-45.108,20.147-45.108,45.108v24.959c0,12.33,4.81,23.758,13.232,31.876c8.118,8.12,19.245,13.232,31.876,13.232h24.659  c24.959,0,45.108-20.449,45.108-45.108v-12.629C114.938,450.355,113.432,446.445,110.727,443.74z"/>
<path style="fill:#979CA7;" d="M354.955,350.514c2.916-8.749,4.751-17.064,5.583-24.954c2.826-26.803-5.93-48.693-23.218-65.981  c-5.873-5.873-5.873-15.389,0-21.262l42.524-42.524c5.873-5.873,15.389-5.873,21.262,0c18.105,18.09,43.038,26.459,67.618,23.581  c13.494-4.464,23.479-6.182,25.52-6.505c10.119-1.704,19.16,7.099,17.371,17.386c-0.852,5.404-9.691,56.091-46.709,93.122  c-38.324,38.31-91.273,46.444-93.519,46.767C360.155,371.751,351.439,361.001,354.955,350.514z"/>
<path style="fill:#A1A7B3;" d="M252.259,174.533c-17.451-17.44-39.755-26.306-67.198-23.082c-7.52,0.883-15.426,2.675-23.723,5.447  c-10.378,3.563-21.284-5.251-19.632-16.431c0.323-2.246,8.458-55.21,46.767-93.519C225.476,9.945,276.163,1.09,281.582,0.238  c10.098-1.819,19.186,7.042,17.4,17.37c-0.323,2.056-2.041,12.041-6.505,25.52c-2.922,24.683,5.477,49.498,23.581,67.602  c5.873,5.873,5.873,15.389,0.015,21.262l-42.553,42.553C267.632,180.406,258.133,180.406,252.259,174.533z"/>
<path style="fill:#757982;" d="M114.938,454.264v12.629c0,24.659-20.149,45.108-45.108,45.108H45.171  c-12.631,0-23.758-5.111-31.876-13.232l76.381-76.081l21.05,21.05C113.432,446.445,114.938,450.355,114.938,454.264z"/>
<path style="fill:#C4CAD9;" d="M403.526,155.751l-23.457-23.455l-23.756-23.758c-16.24-16.54-43.003-16.54-59.242,0l-47.213,47.213  c-16.238,16.238-16.238,42.701,0,58.942l23.758,23.756l23.455,23.457c8.12,8.118,18.945,12.328,29.471,12.328  c10.826,0,21.651-4.21,29.771-12.328l47.213-47.213C419.765,198.452,419.765,171.989,403.526,155.751z"/>
<path style="fill:#B8BFCC;" d="M403.526,214.692l-47.213,47.213c-8.12,8.118-18.945,12.328-29.771,12.328  c-10.526,0-21.352-4.21-29.471-12.328l-23.455-23.457l106.453-106.153l23.457,23.455  C419.765,171.989,419.765,198.452,403.526,214.692z"/>
<g>
</g>
<g>
</g>
<g>
</g>
<g>
</g>
<g>
</g>
<g>
</g>
<g>
</g>
<g>
</g>
<g>
</g>
<g>
</g>
<g>
</g>
<g>
</g>
<g>
</g>
<g>
</g>
<g>
</g>
</svg>
