<?xml version="1.0" encoding="iso-8859-1"?>
<!-- Generator: Adobe Illustrator 19.0.0, SVG Export Plug-In . SVG Version: 6.00 Build 0)  -->
<svg xmlns="http://www.w3.org/2000/svg" xmlns:xlink="http://www.w3.org/1999/xlink" version="1.1" id="Capa_1" x="0px" y="0px" viewBox="0 0 512 512" style="enable-background:new 0 0 512 512;" xml:space="preserve">
<path style="fill:#C4CAD9;" d="M373.702,456.427c-5.938,5.938-15.27,5.939-21.208,0l-296.92-296.92  c-5.939-5.939-5.938-15.271,0-21.208c5.939-5.939,15.27-5.939,21.208,0l296.92,296.92  C379.642,441.158,379.642,450.487,373.702,456.427z"/>
<path style="fill:#B8BFCC;" d="M373.702,456.427c-5.938,5.938-15.27,5.939-21.208,0l-148.46-148.461l21.208-21.208l148.46,148.46  C379.642,441.158,379.642,450.487,373.702,456.427z"/>
<path style="fill:#A66342;" d="M404.879,443.913l-36.69-7.422c1.696-47.931-12.726-146.763-79.321-213.358  S123.442,142.115,75.51,143.812l-7.422-36.69c95.862-42.841,210.176-21.844,284.407,52.386S447.72,348.051,404.879,443.913z"/>
<path style="fill:#995B3D;" d="M404.879,443.913l-36.69-7.422c1.696-47.931-12.726-146.763-79.321-213.358l63.626-63.626  C426.724,233.737,447.72,348.051,404.879,443.913z"/>
<path style="fill:#5C5F66;" d="M423.118,110.091l-282.71,282.71c-5.938,5.938-15.27,5.939-21.208,0  c-5.939-5.939-5.938-15.271,0-21.208l282.71-282.71c5.939-5.939,15.27-5.939,21.208,0  C429.057,94.821,429.057,104.152,423.118,110.091z"/>
<path style="fill:#53565C;" d="M423.118,110.091l-282.71,282.71c-5.938,5.938-15.27,5.939-21.208,0L423.118,88.883  C429.057,94.821,429.057,104.152,423.118,110.091z"/>
<path style="fill:#757982;" d="M352.494,498.844c-17.542-17.542-17.542-46.083,0-63.626s46.083-17.542,63.626,0  c17.542,17.542,17.542,46.083,0,63.626C398.577,516.386,370.037,516.386,352.494,498.844z"/>
<path style="fill:#7F838C;" d="M13.157,159.507c-17.542-17.542-17.542-46.083,0-63.626s46.083-17.542,63.626,0  s17.542,46.083,0,63.626S30.699,177.049,13.157,159.507z"/>
<path style="fill:#C4CAD9;" d="M468.293,106.06l42.417-84.834c2.757-5.724,0.849-12.3-3.393-16.542  c-4.242-4.242-10.818-6.15-16.542-3.393l-84.834,42.417c-5.091,2.543-8.484,7.634-8.271,13.361v42.417  c-0.214,4.03,1.484,7.847,4.241,10.605s6.575,4.454,10.605,4.241h42.417C460.658,114.544,465.749,111.152,468.293,106.06z"/>
<path style="fill:#B8BFCC;" d="M454.931,114.332h-42.417c-4.03,0.214-7.847-1.484-10.605-4.241L507.317,4.684  c4.242,4.242,6.15,10.818,3.393,16.542l-42.417,84.834C465.749,111.152,460.658,114.544,454.931,114.332z"/>
<path style="fill:#4DA6FF;" d="M207.64,398.527l-21.208-63.626c-0.636-1.91-2.121-3.816-3.817-5.513  c-2.121-2.121-4.241-3.394-5.513-3.817l-63.626-21.208c-5.516-1.697-11.453-0.425-15.484,3.605l-84.834,84.833  c-7.847,7.847-4.665,21.208,5.726,24.814l56.628,18.876l18.876,56.628c3.605,10.391,16.966,13.572,24.814,5.726l84.834-84.834  C208.063,409.98,209.336,404.043,207.64,398.527z"/>
<path style="fill:#4596E6;" d="M204.034,414.009L119.2,498.844c-7.847,7.847-21.208,4.665-24.814-5.726L75.51,436.491  l107.103-107.103c1.697,1.697,3.181,3.604,3.817,5.513l21.208,63.626C209.336,404.043,208.063,409.98,204.034,414.009z"/>
<g>
</g>
<g>
</g>
<g>
</g>
<g>
</g>
<g>
</g>
<g>
</g>
<g>
</g>
<g>
</g>
<g>
</g>
<g>
</g>
<g>
</g>
<g>
</g>
<g>
</g>
<g>
</g>
<g>
</g>
</svg>
