<?xml version="1.0" encoding="iso-8859-1"?>
<!-- Generator: Adobe Illustrator 19.0.0, SVG Export Plug-In . SVG Version: 6.00 Build 0)  -->
<svg xmlns="http://www.w3.org/2000/svg" xmlns:xlink="http://www.w3.org/1999/xlink" version="1.1" id="Capa_1" x="0px" y="0px" viewBox="0 0 512.001 512.001" style="enable-background:new 0 0 512.001 512.001;" xml:space="preserve">
<path style="fill:#F39E31;" d="M376,60.851c-39.023,0-76.143,16.89-101.807,46.333l-4.453,74.927l74.326-3.94  C373.891,152.477,391,115.182,391,75.851C391,67.56,384.291,60.851,376,60.851z"/>
<path style="fill:#F9BC35;" d="M237.807,107.184C212.143,77.741,175.023,60.851,136,60.851c-8.291,0-15,6.709-15,15  c0,39.331,17.109,76.626,46.934,102.319l74.326,3.94L237.807,107.184z"/>
<path style="fill:#FFDE33;" d="M268.001,5.851c-3.001-3.602-7.5-5.7-12.001-5.7s-9,2.098-12.001,5.7c-1.5,1.8-32.999,46-32.999,100  s31.5,97.2,32.999,99c2.701,3.9,7.202,6,12.001,6s9.3-2.1,12.001-6c1.5-1.8,32.999-45,32.999-99S269.5,7.651,268.001,5.851z"/>
<path style="fill:#FFBC33;" d="M301,105.851c0,54-31.5,97.2-32.999,99c-2.701,3.9-7.202,6-12.001,6V0.151  c4.501,0,9,2.098,12.001,5.7C269.5,7.651,301,51.851,301,105.851z"/>
<path style="fill:#5C5F66;" d="M30,511.851L30,511.851c-16.569,0-30-13.431-30-30v-241h60v241C60,498.419,46.569,511.851,30,511.851  z"/>
<path style="fill:#E55639;" d="M502.7,92.05c-5.7-2.4-12.001-1.199-16.199,3.3c-36,35.7-84.701,55.501-135.401,55.501  c-25.199,0-50.7,6-73.2,17.398L256,179.051l-21.899-10.802c-22.5-11.398-48.001-17.398-73.2-17.398  c-50.7,0-99.401-19.801-135.401-55.501c-4.199-4.499-10.5-5.7-16.2-3.3S0,99.85,0,105.851v120c0,74.399,61.601,135,136,135  c42.599,0,82.8-16.5,113.101-46.8L256,307.15l12.001,12.001c26.999,27,62.699,41.7,100.8,41.7c78.3,0,143.2-63.9,143.2-142.2v-112.8  C512,99.85,508.4,94.45,502.7,92.05z M236.006,263.456l-2.726,2.729c-26.602,26.649-49.576,49.665-97.28,49.665  c-24.12,0-46.263-8.706-62.351-24.513C60.58,278.495,45,254.314,45,212.05c0-16.492,13.405-29.909,29.882-29.909  c3.246,0,6.477,0.525,9.603,1.561c24.432,7.949,50.854,12.149,76.416,12.149c27.77,0,43.545,7.815,63.518,17.709l3.713,1.836  c8.63,4.314,14.661,12.556,16.207,22.083C245.881,246.985,242.766,256.697,236.006,263.456z M435.882,289.41  c-17.808,16.803-42.258,26.44-67.082,26.44c-41.244,0-61.704-20.807-85.395-44.9c-2.398-2.438-4.859-4.941-7.412-7.494  c-6.76-6.76-9.875-16.471-8.332-25.978c1.546-9.527,7.576-17.768,16.131-22.045l3.788-1.873c19.973-9.895,35.749-17.71,63.52-17.71  c25.562,0,51.984-4.201,76.416-12.149c3.126-1.036,6.356-1.561,9.603-1.561c16.477,0,29.882,13.417,29.882,29.909  C467,251.72,450.078,276.015,435.882,289.41z"/>
<path style="fill:#CF4529;" d="M502.7,92.05c-5.7-2.401-12.001-1.199-16.199,3.3c-36,35.7-84.701,55.501-135.401,55.501  c-25.199,0-50.7,6-73.2,17.399L256,179.051V307.15l12.001,12.001c26.999,27.001,62.699,41.7,100.8,41.7  c78.3,0,143.2-63.9,143.2-142.2v-112.8C512,99.85,508.4,94.451,502.7,92.05z M368.8,300.851c-38.701,0-55.501-21.301-82.2-48.001  c-7.2-7.2-5.101-19.499,3.9-24c21.3-10.499,34.8-17.999,60.599-17.999c27.601,0,55.3-4.501,81.101-12.9  c9.899-3.301,19.799,3.9,19.799,14.099C452,270.851,409.3,300.851,368.8,300.851z"/>
<path style="fill:#FF80C0;" d="M351.099,180.851c-20.7,0-41.4,4.799-59.7,14.099l-28.801,14.401c-2.098,0.899-4.199,1.5-6.599,1.5  s-4.501-0.601-6.599-1.5l-28.8-14.401c-18.3-9.3-39-14.099-59.7-14.099c-47.401,0-93.401-15-130.901-42.301v87.301  c0,57.9,48.1,105,106,105c34.799,0,67.2-13.5,91.8-38.101l17.701-17.401c2.699-2.999,6.599-4.499,10.499-4.499  c3.9,0,7.8,1.5,10.499,4.499l22.8,22.5C310.6,319.15,338.8,330.851,368.8,330.851c61.8,0,113.2-50.4,113.2-112.2V138.55  C444.5,165.851,398.5,180.851,351.099,180.851z M225.399,252.85c-27.9,27.9-46.5,48.001-89.399,48.001c-36.899,0-76-24.3-76-88.801  c0-10.199,9.901-17.401,19.799-14.099c25.801,8.399,53.5,12.9,81.101,12.9c25.8,0,39.3,7.5,60.599,17.999  C230.501,233.351,232.599,245.65,225.399,252.85z M368.8,300.851c-38.701,0-55.501-21.301-82.2-48.001c-7.2-7.2-5.101-19.499,3.9-24  c21.3-10.499,34.8-17.999,60.599-17.999c27.601,0,55.3-4.501,81.101-12.9c9.899-3.301,19.799,3.9,19.799,14.099  C452,270.851,409.3,300.851,368.8,300.851z"/>
<path style="fill:#E673AD;" d="M351.099,180.851c-20.7,0-41.4,4.799-59.7,14.099l-28.801,14.401c-2.098,0.899-4.199,1.5-6.599,1.5  v60c3.9,0,7.8,1.5,10.499,4.499l22.8,22.5c21.302,21.3,49.502,33.001,79.502,33.001c61.8,0,113.2-50.4,113.2-112.2V138.55  C444.5,165.851,398.5,180.851,351.099,180.851z M368.8,300.851c-38.701,0-55.501-21.301-82.2-48.001c-7.2-7.2-5.101-19.499,3.9-24  c21.3-10.499,34.8-17.999,60.599-17.999c27.601,0,55.3-4.501,81.101-12.9c9.899-3.301,19.799,3.9,19.799,14.099  C452,270.851,409.3,300.851,368.8,300.851z"/>
<g>
</g>
<g>
</g>
<g>
</g>
<g>
</g>
<g>
</g>
<g>
</g>
<g>
</g>
<g>
</g>
<g>
</g>
<g>
</g>
<g>
</g>
<g>
</g>
<g>
</g>
<g>
</g>
<g>
</g>
</svg>
