<?xml version="1.0" encoding="iso-8859-1"?>
<!-- Generator: Adobe Illustrator 19.0.0, SVG Export Plug-In . SVG Version: 6.00 Build 0)  -->
<svg xmlns="http://www.w3.org/2000/svg" xmlns:xlink="http://www.w3.org/1999/xlink" version="1.1" id="Capa_1" x="0px" y="0px" viewBox="0 0 512 512" style="enable-background:new 0 0 512 512;" xml:space="preserve">
<path style="fill:#F26B7D;" d="M327.1,24.899L256,150L184.9,24.899L207.1,5.1C207.4,5.099,230.2,30,256,30s48.6-24.901,48.9-24.901  L327.1,24.899z"/>
<path style="fill:#DB5C6B;" d="M327.1,24.899L256,150V30c25.8,0,48.6-24.901,48.9-24.901L327.1,24.899z"/>
<path style="fill:#F26B7D;" d="M166,0h-30C94.647,0,61,33.647,61,75v30c0,8.291,6.709,15,15,15h64.014c8.291,0,15-6.709,15-15  L181,15C181,6.709,174.291,0,166,0z"/>
<path style="fill:#DB5C6B;" d="M376,0h-30c-8.291,0-15,6.709-15,15l40.986,105H436c8.291,0,15-6.709,15-15V75  C451,33.647,417.353,0,376,0z"/>
<path style="fill:#FF80C0;" d="M391,75c0,15-2.401,30.899-8.401,44.399c0,0.3,0,0.3,0,0.3C368.8,152.699,361.901,182.3,361,208.1  L256,272l-105.3-63.3c-0.601-26.102-7.5-55.701-21.299-89.301C123.999,106.8,121,91.5,121,75c0-42.9,19.501-75,45-75h30  c8.401,0,15,6.599,15,15v30c0,24.3,19.501,45,45,45c27.001,0,45-23.401,45-48.3V15c0-8.401,6.599-15,15-15h30  C371.499,0,391,32.1,391,75z"/>
<path style="fill:#E673AD;" d="M391,75c0,15-2.401,30.899-8.401,44.399c0,0.3,0,0.3,0,0.3C368.8,152.699,361.901,182.3,361,208.1  L256,272V90c27.001,0,45-23.401,45-48.3V15c0-8.401,6.599-15,15-15h30C371.499,0,391,32.1,391,75z"/>
<path style="fill:#F26B7D;" d="M481,407v60c0,6.599-4.2,12.299-10.499,14.399c-3.9,1.2-97.5,30.601-214.501,30.601  S45.399,482.599,41.499,481.399C35.2,479.299,31,473.599,31,467v-60c0-15.3,2.1-30.3,5.099-45L87.7,332l157.5-60h26.1l153,60  l51.601,30C478.9,376.7,481,391.7,481,407z"/>
<path style="fill:#DB5C6B;" d="M481,407v60c0,6.599-4.2,12.299-10.499,14.399c-3.9,1.2-97.5,30.601-214.501,30.601V272h15.3l153,60  l51.601,30C478.9,376.7,481,391.7,481,407z"/>
<path style="fill:#FFCF99;" d="M143.852,329.437C139.611,341.455,136,349.308,136,362c0,33.091,26.909,60,60,60  c7.632,0,15.059-1.421,22.104-4.204L226,302L143.852,329.437z"/>
<path style="fill:#FFC380;" d="M368.134,329.437L286,302l7.896,115.796C300.941,420.579,308.368,422,316,422  c33.091,0,60-26.909,60-60C376,349.451,372.407,341.523,368.134,329.437z"/>
<path style="fill:#FFDFB3;" d="M312.7,371.899l-42.601-120c-2.098-5.999-8.099-9-14.099-9s-12.001,3.001-14.099,9  C241.601,252.8,203.5,360.5,199.6,371.3c-2.1,6.599-3.6,12.599-3.6,20.7c0,32.999,27.001,60,60,60s60-27.001,60-60  C316,384.8,314.801,377.599,312.7,371.899z"/>
<path style="fill:#FFCF99;" d="M316,392c0,32.999-27.001,60-60,60V242.899c6,0,12.001,3.001,14.099,9l42.601,120  C314.801,377.599,316,384.8,316,392z"/>
<path style="fill:#FF80C0;" d="M475.901,362H424.3c-66,0-127.2-29.7-168.3-80.4C214.9,332.3,153.701,362,87.7,362H36.099  c2.1-10.201,5.101-20.101,8.401-30c14.7-40.201,40.199-75.601,73.799-102.001c10.201-7.8,21-15,32.401-21.299  c23.101,6.899,81.899,24.598,105.3,31.5c21.599-6.601,3.3-0.901,105-32.401c11.4,6.301,22.2,13.801,32.401,21.599  c34.199,26.4,59.7,62.1,74.099,102.601C471.099,341.899,473.8,351.799,475.901,362z"/>
<path style="fill:#E673AD;" d="M475.901,362H424.3c-66,0-127.2-29.7-168.3-80.4v-41.4c21.599-6.601,3.3-0.901,105-32.401  c11.4,6.301,22.2,13.801,32.401,21.599c34.199,26.4,59.7,62.1,74.099,102.601C471.099,341.899,473.8,351.799,475.901,362z"/>
<g>
</g>
<g>
</g>
<g>
</g>
<g>
</g>
<g>
</g>
<g>
</g>
<g>
</g>
<g>
</g>
<g>
</g>
<g>
</g>
<g>
</g>
<g>
</g>
<g>
</g>
<g>
</g>
<g>
</g>
</svg>
