<?xml version="1.0" encoding="iso-8859-1"?>
<!-- Generator: Adobe Illustrator 19.0.0, SVG Export Plug-In . SVG Version: 6.00 Build 0)  -->
<svg xmlns="http://www.w3.org/2000/svg" xmlns:xlink="http://www.w3.org/1999/xlink" version="1.1" id="Capa_1" x="0px" y="0px" viewBox="0 0 512 512" style="enable-background:new 0 0 512 512;" xml:space="preserve">
<path style="fill:#5C5F66;" d="M481.701,431.694c0.901,4.499-0.3,9.3-2.999,12.598c-3.001,3.6-7.2,5.7-11.7,5.7H167.015  c-4.501,0-8.699-2.1-11.7-5.7c-2.699-3.3-3.9-8.101-2.999-12.598l24.599-110.995c1.8-8.101,9.6-13.199,17.698-11.4h244.791  c8.099-1.8,15.898,3.3,17.698,11.4L481.701,431.694z"/>
<path style="fill:#53565C;" d="M481.701,431.694c0.901,4.499-0.3,9.3-2.999,12.598c-3.001,3.6-7.2,5.7-11.7,5.7H317.009V309.298  h122.396c8.099-1.8,15.898,3.3,17.698,11.4L481.701,431.694z"/>
<path style="fill:#E55639;" d="M512,195.003c0,53.998-21.898,102.595-56.999,137.993c-35.399,35.098-83.997,56.999-137.993,56.999  c-107.697,0-194.992-87.297-194.992-194.992c0-53.998,21.898-102.597,56.999-137.995C214.413,21.91,263.011,0.01,317.008,0.01  S419.603,21.91,455.001,57.007C490.102,92.406,512,141.006,512,195.003z"/>
<path style="fill:#CF4529;" d="M512,195.003c0,53.998-21.898,102.595-56.999,137.993c-35.399,35.098-83.997,56.999-137.993,56.999  V0.01c53.998,0,102.595,21.898,137.993,56.997C490.102,92.406,512,141.006,512,195.003z"/>
<path style="fill:#E6EEFF;" d="M482.001,195.003c0,45.597-18.599,86.995-48.298,116.695  c-29.699,29.699-71.097,48.298-116.695,48.298c-91.195,0-164.993-73.798-164.993-164.993c0-45.599,18.599-86.997,48.298-116.695  s71.097-48.298,116.695-48.298s86.997,18.599,116.695,48.298S482.001,149.404,482.001,195.003z"/>
<path style="fill:#DAE2F2;" d="M482.001,195.003c0,45.597-18.599,86.995-48.298,116.695  c-29.699,29.699-71.097,48.298-116.695,48.298V30.009c45.599,0,86.997,18.599,116.695,48.298S482.001,149.404,482.001,195.003z"/>
<path style="fill:#E55639;" d="M317.008,60.008c-74.396,0-134.994,60.597-134.994,134.994c0,74.396,60.599,134.994,134.994,134.994  s134.994-60.599,134.994-134.994C452.002,120.605,391.404,60.008,317.008,60.008z"/>
<path style="fill:#CF4529;" d="M452.002,195.003c0,74.396-60.599,134.994-134.994,134.994V60.008  C391.404,60.008,452.002,120.605,452.002,195.003z"/>
<path style="fill:#E6EEFF;" d="M317.008,90.007c-57.898,0-104.996,47.098-104.996,104.996s47.098,104.996,104.996,104.996  S422.004,252.9,422.004,195.003S374.906,90.007,317.008,90.007z"/>
<path style="fill:#DAE2F2;" d="M422.004,195.003c0,57.898-47.098,104.996-104.996,104.996V90.007  C374.906,90.007,422.004,137.106,422.004,195.003z"/>
<path style="fill:#E55639;" d="M317.008,120.006c-41.398,0-74.997,33.599-74.997,74.997s33.599,74.997,74.997,74.997  s74.997-33.599,74.997-74.997S358.406,120.006,317.008,120.006z"/>
<path style="fill:#CF4529;" d="M392.005,195.003c0,41.398-33.599,74.997-74.997,74.997V120.006  C358.406,120.006,392.005,153.604,392.005,195.003z"/>
<path style="fill:#7F838C;" d="M467.002,419.993H167.014c-24.9,0-44.998,20.098-44.998,44.998v31.999  c0,8.399,6.599,14.999,14.999,14.999h359.985c8.401,0,14.999-6.601,14.999-14.999v-31.999  C512,440.092,491.901,419.993,467.002,419.993z"/>
<path style="fill:#757982;" d="M512,464.991v31.999c0,8.399-6.599,14.999-14.999,14.999H317.008v-91.996h149.994  C491.901,419.993,512,440.092,512,464.991z"/>
<path style="fill:#E6EEFF;" d="M317.008,150.004c-24.9,0-44.998,20.098-44.998,44.998c0,24.898,20.098,44.998,44.998,44.998  c24.9,0,44.998-20.1,44.998-44.998C362.006,170.104,341.907,150.004,317.008,150.004z"/>
<path style="fill:#DAE2F2;" d="M362.006,195.003c0,24.898-20.098,44.998-44.998,44.998v-89.996  C341.907,150.004,362.006,170.104,362.006,195.003z"/>
<path style="fill:#5C5F66;" d="M332.007,195.003c0,8.399-6.599,14.999-14.999,14.999H77.018c-8.401,0-15.999-6.601-15.999-14.999  c0-8.401,7.599-14.999,15.999-14.999h239.99C325.409,180.003,332.007,186.603,332.007,195.003z"/>
<path style="fill:#4DA6FF;" d="M180.432,188.294l-29.999-59.998c-2.549-5.083-7.734-8.291-13.417-8.291H15.02  c-11.106,0-18.417,11.741-13.417,21.708l26.645,53.289L1.603,248.291c-5,9.968,2.312,21.708,13.417,21.708h121.995  c5.684,0,10.869-3.208,13.417-8.291l29.999-59.998C182.49,197.61,181.384,190.191,180.432,188.294z"/>
<path style="fill:#53565C;" d="M332.007,195.003c0,8.399-6.599,14.999-14.999,14.999v-29.999  C325.409,180.003,332.007,186.603,332.007,195.003z"/>
<g>
</g>
<g>
</g>
<g>
</g>
<g>
</g>
<g>
</g>
<g>
</g>
<g>
</g>
<g>
</g>
<g>
</g>
<g>
</g>
<g>
</g>
<g>
</g>
<g>
</g>
<g>
</g>
<g>
</g>
</svg>
