<?xml version="1.0" encoding="iso-8859-1"?>
<!-- Generator: Adobe Illustrator 19.0.0, SVG Export Plug-In . SVG Version: 6.00 Build 0)  -->
<svg xmlns="http://www.w3.org/2000/svg" xmlns:xlink="http://www.w3.org/1999/xlink" version="1.1" id="Capa_1" x="0px" y="0px" viewBox="0 0 512 512" style="enable-background:new 0 0 512 512;" xml:space="preserve">
<path style="fill:#B8BFCC;" d="M316,482c-8.291,0-15-6.709-15-15v-36.006c0-8.291,6.709-15,15-15s15,6.709,15,15V467  C331,475.291,324.291,482,316,482z"/>
<g>
	<path style="fill:#C4CAD9;" d="M196,482c-8.291,0-15-6.709-15-15v-35.991c0-8.291,6.709-15,15-15s15,6.709,15,15V467   C211,475.291,204.291,482,196,482z"/>
	<path style="fill:#C4CAD9;" d="M136,452c-8.291,0-15-6.709-15-15v-41.997c0-8.291,6.709-15,15-15s15,6.709,15,15V437   C151,445.291,144.291,452,136,452z"/>
</g>
<path style="fill:#B8BFCC;" d="M376,452c-8.291,0-15-6.709-15-15v-41.997c0-8.291,6.709-15,15-15s15,6.709,15,15V437  C391,445.291,384.291,452,376,452z"/>
<path style="fill:#C4CAD9;" d="M271,467v30c0,8.399-6.599,15-15,15s-15-6.601-15-15v-30c0-8.401,6.599-15,15-15S271,458.599,271,467  z"/>
<path style="fill:#B8BFCC;" d="M271,467v30c0,8.399-6.599,15-15,15v-60C264.401,452,271,458.599,271,467z"/>
<path style="fill:#F9BC35;" d="M46,90C21.186,90,0,69.814,0,45S21.186,0,46,0s45,20.186,45,45S70.814,90,46,90z"/>
<path style="fill:#F39E31;" d="M466,90c-24.814,0-45-20.186-45-45s20.186-45,45-45s46,20.186,46,45S490.814,90,466,90z"/>
<path style="fill:#E6EEFF;" d="M406,60H106c-8.401,0-15,6.599-15,15v302c0,5.4,2.701,10.199,7.2,12.9l150,90  c2.401,1.5,5.099,2.1,7.8,2.1c2.701,0,5.4-0.601,7.8-2.1l150-90c4.499-2.701,7.2-7.5,7.2-12.9V75C421,66.599,414.401,60,406,60z"/>
<path style="fill:#DAE2F2;" d="M421,75v302c0,5.4-2.701,10.199-7.2,12.9l-150,90c-2.401,1.5-5.099,2.1-7.8,2.1V60h150  C414.401,60,421,66.599,421,75z"/>
<path style="fill:#E55639;" d="M196.013,347c-0.002-0.003-0.005-0.007-0.007-0.01l29.99-59.986l-59.917,29.958  c-0.034,0.016-0.06,0.026-0.077,0.032L166,195.008c0.003-0.002,0.006-0.003,0.009-0.005c0.011,0.005,59.987,29.993,59.987,29.993  l-29.992-59.983c0.002-0.003,0.005-0.007,0.007-0.01L315.987,165c0.002,0.003,0.005,0.007,0.007,0.01l-29.99,59.986l59.985-29.992  c0.01,0.011,0.032,0.029,0.042,0.044L346,317c-0.016-0.007-59.996-29.996-59.996-29.996l29.992,59.983  c-0.003,0.004-0.006,0.008-0.009,0.013H196.013z"/>
<path style="fill:#CF4529;" d="M315.996,346.987l-29.992-59.983c0,0,59.98,29.989,59.996,29.996l0.031-121.952  c-0.01-0.015-0.033-0.033-0.042-0.044l-59.985,29.992l29.99-59.986c-0.002-0.003-0.004-0.007-0.007-0.01L256,165.001V347h59.987  C315.99,346.996,315.993,346.992,315.996,346.987z"/>
<path style="fill:#A66342;" d="M406,0H106C81.099,0,61,20.099,61,45c0,24.899,20.099,45,45,45h300c24.901,0,45-20.101,45-45  C451,20.099,430.901,0,406,0z"/>
<path style="fill:#995B3D;" d="M451,45c0,24.899-20.099,45-45,45H256V0h150C430.901,0,451,20.099,451,45z"/>
<g>
</g>
<g>
</g>
<g>
</g>
<g>
</g>
<g>
</g>
<g>
</g>
<g>
</g>
<g>
</g>
<g>
</g>
<g>
</g>
<g>
</g>
<g>
</g>
<g>
</g>
<g>
</g>
<g>
</g>
</svg>
