<?xml version="1.0" encoding="iso-8859-1"?>
<!-- Generator: Adobe Illustrator 19.0.0, SVG Export Plug-In . SVG Version: 6.00 Build 0)  -->
<svg xmlns="http://www.w3.org/2000/svg" xmlns:xlink="http://www.w3.org/1999/xlink" version="1.1" id="Capa_1" x="0px" y="0px" viewBox="0 0 512 512" style="enable-background:new 0 0 512 512;" xml:space="preserve">
<path style="fill:#5C5F66;" d="M481,226v196l-30,30H61l-30-30V226c0-10.201,0.901-20.101,2.1-29.7V196c0-59.401,75-196,222.9-196  c145.499,0,222.9,133.299,222.9,196v0.3C480.099,205.899,481,215.799,481,226z"/>
<path style="fill:#53565C;" d="M481,226v196l-30,30H256V0c145.499,0,222.9,133.299,222.9,196v0.3  C480.099,205.899,481,215.799,481,226z"/>
<path style="fill:#5C5F66;" d="M466,512H46c-8.284,0-15-6.716-15-15v-75h450v75C481,505.284,474.284,512,466,512z"/>
<path style="fill:#53565C;" d="M481,422H256v90h210c8.284,0,15-6.716,15-15V422z"/>
<rect x="61" y="452" style="fill:#E55639;" width="90" height="30"/>
<rect x="181" y="452" style="fill:#F29A36;" width="150" height="30"/>
<rect x="361" y="452" style="fill:#CF4529;" width="90" height="30"/>
<rect x="256" y="452" style="fill:#E7812E;" width="75" height="30"/>
<path style="fill:#FF80C0;" d="M91,422H61v-90h30V422z"/>
<path style="fill:#E55639;" d="M121,362h120v60H121V362z"/>
<path style="fill:#FF80C0;" d="M121,241h120v91H121V241z"/>
<g>
	<path style="fill:#5AF1FF;" d="M61,226c0-5.063,0.379-10.032,0.76-15h30c-0.449,4.948-0.76,9.937-0.76,15v76H61V226z"/>
	<path style="fill:#5AF1FF;" d="M241,91.516c0,45.386,0,76.771,0,119.484H122.516C129.527,148.675,178.675,98.527,241,91.516z"/>
</g>
<g>
	<path style="fill:#4DA6FF;" d="M116.474,89.057l20.138,22.372c-18.184,19.107-31.811,43.517-39.216,69.571H66.451   C74.727,146.153,92.265,113.895,116.474,89.057z"/>
	<path style="fill:#4DA6FF;" d="M241,60.76c-30.417,2.758-58.391,13.861-81.81,30.916l-20.121-22.354   C167.932,47.589,202.907,33.682,241,30.76V60.76z"/>
</g>
<path style="fill:#CF4529;" d="M271,422v-60h120v60H271z"/>
<g>
	<path style="fill:#E673AD;" d="M421,422v-90h30v90H421z"/>
	<path style="fill:#E673AD;" d="M271,241h120v91H271V241z"/>
</g>
<g>
	<path style="fill:#51DAE6;" d="M421,226c0-5.063-0.311-10.052-0.76-15h30c0.381,4.968,0.76,9.937,0.76,15v76h-30V226z"/>
	<path style="fill:#51DAE6;" d="M389.484,211H271c0-42.677,0-74.119,0-119.484C333.325,98.527,382.473,148.675,389.484,211z"/>
</g>
<g>
	<path style="fill:#4596E6;" d="M445.549,181h-30.945c-7.405-26.054-21.031-50.464-39.216-69.571l20.138-22.372   C419.735,113.895,437.273,146.153,445.549,181z"/>
	<path style="fill:#4596E6;" d="M352.81,91.675C329.391,74.621,301.417,63.517,271,60.76v-30   c38.093,2.922,73.068,16.829,101.931,38.562L352.81,91.675z"/>
</g>
<path style="fill:#5C5F66;" d="M346,181h-45v-46c0-8.401-6.599-15-15-15h-60c-8.401,0-15,6.599-15,15v46h-45  c-8.401,0-15,6.599-15,15v60c0,8.399,6.599,15,15,15h45v106c0,8.399,6.599,15,15,15h60c8.401,0,15-6.601,15-15V271h45  c8.401,0,15-6.601,15-15v-60C361,187.599,354.401,181,346,181z"/>
<path style="fill:#53565C;" d="M361,196v60c0,8.399-6.599,15-15,15h-45v106c0,8.399-6.599,15-15,15h-30V120h30  c8.401,0,15,6.599,15,15v46h45C354.401,181,361,187.599,361,196z"/>
<polygon style="fill:#FFDE33;" points="241,362 241,241 181,241 181,211 241,211 241,150 271,150 271,211 331,211 331,241 271,241   271,362 "/>
<polygon style="fill:#FFBC33;" points="271,150 256,150 256,362 271,362 271,241 331,241 331,211 271,211 "/>
<g>
</g>
<g>
</g>
<g>
</g>
<g>
</g>
<g>
</g>
<g>
</g>
<g>
</g>
<g>
</g>
<g>
</g>
<g>
</g>
<g>
</g>
<g>
</g>
<g>
</g>
<g>
</g>
<g>
</g>
</svg>
