<?xml version="1.0" encoding="iso-8859-1"?>
<!-- Generator: Adobe Illustrator 19.0.0, SVG Export Plug-In . SVG Version: 6.00 Build 0)  -->
<svg xmlns="http://www.w3.org/2000/svg" xmlns:xlink="http://www.w3.org/1999/xlink" version="1.1" id="Capa_1" x="0px" y="0px" viewBox="0 0 512 512" style="enable-background:new 0 0 512 512;" xml:space="preserve">
<path style="fill:#F29A36;" d="M415.901,137.1L390.7,287.399c-1.2,7.5-7.5,12.601-14.7,12.601H136c-7.2,0-13.5-5.101-14.7-12.601  L96.099,137.1L136,90h25.499L222.7,49.2h66.6L350.501,90H376L415.901,137.1z"/>
<path style="fill:#E7812E;" d="M415.901,137.1L390.7,287.399c-1.2,7.5-7.5,12.601-14.7,12.601H256V49.2h33.3L350.501,90H376  L415.901,137.1z"/>
<path style="fill:#CF4529;" d="M334.9,165.899C326.201,155.7,314.5,150,298.299,150c-5.999-17.401-22.798-30-42.299-30  s-36.301,12.599-42.299,30c-16.201,0-27.902,5.7-36.601,15.899c-8.699,10.201-12.299,23.401-10.199,36.601l14.399,84.899  C182.5,294.6,188.8,300,196,300h120c7.2,0,13.5-5.4,14.7-12.601l14.399-84.899C347.199,189.3,343.599,176.1,334.9,165.899z"/>
<path style="fill:#BF3B1D;" d="M345.099,202.5L330.7,287.399C329.5,294.6,323.2,300,316,300h-60V120  c19.501,0,36.301,12.599,42.299,30c16.201,0,27.902,5.7,36.601,15.899C343.599,176.1,347.199,189.3,345.099,202.5z"/>
<rect x="121" y="392" style="fill:#F29A36;" width="270" height="90"/>
<path style="fill:#E55639;" d="M346,270H166c-24.901,0-45,20.099-45,45c0,24.899,20.099,45,45,45h180c24.901,0,45-20.101,45-45  C391,290.099,370.901,270,346,270z"/>
<path style="fill:#FFDE33;" d="M256,0c-24.901,0-45,20.099-45,45s20.099,45,45,45s45-20.099,45-45S280.901,0,256,0z"/>
<path style="fill:#FFBC33;" d="M406,150c-24.814,0-45-20.186-45-45s20.186-45,45-45s45,20.186,45,45S430.814,150,406,150z"/>
<path style="fill:#FFDE33;" d="M106,150c-24.814,0-45-20.186-45-45s20.186-45,45-45s45,20.186,45,45S130.814,150,106,150z"/>
<path style="fill:#CF4529;" d="M391,315c0,24.899-20.099,45-45,45h-90v-90h90C370.901,270,391,290.099,391,315z"/>
<rect x="256" y="392" style="fill:#E7812E;" width="135" height="90"/>
<path style="fill:#FFBC33;" d="M301,45c0,24.901-20.099,45-45,45V0C280.901,0,301,20.099,301,45z"/>
<path style="fill:#F9BC35;" d="M451,424.699v-73.1C468.701,341.4,481,322.2,481,300c0-33.001-27.001-60-60-60s-60,26.999-60,60v15  c0,8.399-6.599,15-15,15H166c-8.401,0-15-6.601-15-15v-15c0-33.001-27.001-60-60-60s-60,26.999-60,60c0,22.2,12.299,41.4,30,51.599  v73.1c0,22.8-9.3,45.3-25.499,61.8C31,490.699,29.801,497,32.2,502.7c2.4,5.7,7.8,9.3,13.8,9.3h90c8.401,0,15-6.601,15-15v-60  c0-8.401,6.599-15,15-15h180c8.401,0,15,6.599,15,15v60c0,8.399,6.599,15,15,15h90c6,0,11.4-3.6,13.801-9.3  c2.399-5.7,1.199-12.001-3.301-16.201C460.3,469.999,451,447.499,451,424.699z"/>
<path style="fill:#F39E31;" d="M476.499,486.499c4.501,4.2,5.7,10.501,3.301,16.201c-2.4,5.7-7.8,9.3-13.8,9.3h-90  c-8.401,0-15-6.601-15-15v-60c0-8.401-6.599-15-15-15h-90v-92h90c8.401,0,15-6.601,15-15v-15c0-33.001,27.001-60,60-60  s60,26.999,60,60c0,22.2-12.299,41.4-30,51.599v73.1C451,447.499,460.3,469.999,476.499,486.499z"/>
<g>
</g>
<g>
</g>
<g>
</g>
<g>
</g>
<g>
</g>
<g>
</g>
<g>
</g>
<g>
</g>
<g>
</g>
<g>
</g>
<g>
</g>
<g>
</g>
<g>
</g>
<g>
</g>
<g>
</g>
</svg>
