<?xml version="1.0" encoding="iso-8859-1"?>
<!-- Generator: Adobe Illustrator 19.0.0, SVG Export Plug-In . SVG Version: 6.00 Build 0)  -->
<svg xmlns="http://www.w3.org/2000/svg" xmlns:xlink="http://www.w3.org/1999/xlink" version="1.1" id="Capa_1" x="0px" y="0px" viewBox="0 0 512 512" style="enable-background:new 0 0 512 512;" xml:space="preserve">
<g>
	<path style="fill:#4596E6;" d="M255,451.007c-8.291,0-15-6.709-15-15v-45c0-8.291,6.709-15,15-15c8.291,0,15,6.709,15,15v45   C270,444.298,263.291,451.007,255,451.007z"/>
	<path style="fill:#4596E6;" d="M315,421.007c-8.291,0-15-6.709-15-15v-60c0-8.291,6.709-15,15-15s15,6.709,15,15v60   C330,414.298,323.291,421.007,315,421.007z"/>
</g>
<path style="fill:#F39E31;" d="M488.68,33.526L451,57.98l-30,46.752v62.549l30,46.752l37.68,24.454  c9.931,6.621,23.32-0.495,23.32-12.48v-180C512,34.005,498.579,26.916,488.68,33.526z"/>
<path style="fill:#FFBC33;" d="M421,74.732c-9.683,4.356-19.737,7.648-30,10.252l-30,34.922v32.201l30,34.922  c10.263,2.604,20.317,5.896,30,10.252c13.323,5.997,20.342,10.316,30,16.752V57.98C441.342,64.417,434.323,68.735,421,74.732z"/>
<rect x="120" y="91.01" style="fill:#F9BC35;" width="150" height="90"/>
<rect x="195" y="91.01" style="fill:#F39E31;" width="75" height="90"/>
<path style="fill:#F9BC35;" d="M75,91.007H15c-8.291,0-15,6.709-15,15v60c0,8.291,6.709,15,15,15h60c8.291,0,15-6.709,15-15v-60  C90,97.716,83.291,91.007,75,91.007z"/>
<path style="fill:#FFDE33;" d="M15,211.007c-8.291,0-15-6.709-15-15v-120c0-8.291,6.709-15,15-15s15,6.709,15,15v120  C30,204.298,23.291,211.007,15,211.007z"/>
<path style="fill:#F39E31;" d="M361,89.906c-4.997,0.408-10.95,1.1-16,1.1h-30c-8.291,0-15,6.709-15,15v60c0,8.291,6.709,15,15,15  h30c5.05,0,11.003,0.692,16,1.1c10.172,0.835,20.182,2.43,30,4.922V84.984C381.182,87.476,371.172,89.071,361,89.906z"/>
<g>
	<path style="fill:#4DA6FF;" d="M210,436.007v30c0,8.401-6.599,15-15,15s-15-6.599-15-15v-30c0-8.401,6.599-15,15-15   S210,427.606,210,436.007z"/>
	<path style="fill:#4DA6FF;" d="M135,451.007c-8.291,0-15-6.709-15-15v-45c0-8.291,6.709-15,15-15s15,6.709,15,15v45   C150,444.298,143.291,451.007,135,451.007z"/>
	<path style="fill:#4DA6FF;" d="M75,421.007c-8.291,0-15-6.709-15-15v-60c0-8.291,6.709-15,15-15s15,6.709,15,15v60   C90,414.298,83.291,421.007,75,421.007z"/>
</g>
<path style="fill:#4596E6;" d="M210,436.007v30c0,8.401-6.599,15-15,15v-60C203.401,421.007,210,427.606,210,436.007z"/>
<path style="fill:#4DA6FF;" d="M330,76.007v170.099L195,376.007l-135-135v-165c0-8.401,6.599-15,15-15h60c8.401,0,15,6.599,15,15  v120c0,24.901,20.099,45,45,45s45-20.099,45-45v-120c0-8.401,6.599-15,15-15h60C323.401,61.007,330,67.606,330,76.007z"/>
<path style="fill:#4596E6;" d="M330,76.007v170.099L195,376.007v-135c24.901,0,45-20.099,45-45v-120c0-8.401,6.599-15,15-15h60  C323.401,61.007,330,67.606,330,76.007z"/>
<path style="fill:#57DEFF;" d="M330,246.106v107.401l-126,94.501c-2.699,1.8-6,2.999-9,2.999s-6.301-1.199-9-2.999L60,353.507  v-112.5l135,101.4L330,246.106z"/>
<path style="fill:#4EC9E6;" d="M330,246.106v107.401l-126,94.501c-2.699,1.8-6,2.999-9,2.999v-108.6L330,246.106z"/>
<g>
</g>
<g>
</g>
<g>
</g>
<g>
</g>
<g>
</g>
<g>
</g>
<g>
</g>
<g>
</g>
<g>
</g>
<g>
</g>
<g>
</g>
<g>
</g>
<g>
</g>
<g>
</g>
<g>
</g>
</svg>
